<?xml version="1.0" encoding="UTF-8"?>
<!--Generator: Apple Native CoreSVG 336-->
<!DOCTYPE svg
PUBLIC "-//W3C//DTD SVG 1.1//EN"
       "http://www.w3.org/Graphics/SVG/1.1/DTD/svg11.dtd">
<svg version="1.1" xmlns="http://www.w3.org/2000/svg" xmlns:xlink="http://www.w3.org/1999/xlink" viewBox="0 0 3300 2200">
 <!--glyph: "", point size: 100.0, font version: "20.0d10e1", template writer version: "138.0.0"-->
 <style>.monochrome-0 {-sfsymbols-motion-group:0;-sfsymbols-layer-tags:131d6076ced82a5f}

.multicolor-0:tintColor {-sfsymbols-motion-group:0;-sfsymbols-layer-tags:131d6076ced82a5f}

.hierarchical-0:primary {-sfsymbols-motion-group:0;-sfsymbols-layer-tags:131d6076ced82a5f}

.SFSymbolsPreviewWireframe {fill:none;opacity:1.0;stroke:black;stroke-width:0.5}
</style>
 <g id="Notes">
  <rect height="2200" id="artboard" style="fill:white;opacity:1" width="3300" x="0" y="0"/>
  <line style="fill:none;stroke:black;opacity:1;stroke-width:0.5;" x1="263" x2="3036" y1="292" y2="292"/>
  <text style="stroke:none;fill:black;font-family:sans-serif;font-size:13;font-weight:bold;" transform="matrix(1 0 0 1 263 322)">Weight/Scale Variations</text>
  <text style="stroke:none;fill:black;font-family:sans-serif;font-size:13;text-anchor:middle;" transform="matrix(1 0 0 1 559.711 322)">Ultralight</text>
  <text style="stroke:none;fill:black;font-family:sans-serif;font-size:13;text-anchor:middle;" transform="matrix(1 0 0 1 856.422 322)">Thin</text>
  <text style="stroke:none;fill:black;font-family:sans-serif;font-size:13;text-anchor:middle;" transform="matrix(1 0 0 1 1153.13 322)">Light</text>
  <text style="stroke:none;fill:black;font-family:sans-serif;font-size:13;text-anchor:middle;" transform="matrix(1 0 0 1 1449.84 322)">Regular</text>
  <text style="stroke:none;fill:black;font-family:sans-serif;font-size:13;text-anchor:middle;" transform="matrix(1 0 0 1 1746.56 322)">Medium</text>
  <text style="stroke:none;fill:black;font-family:sans-serif;font-size:13;text-anchor:middle;" transform="matrix(1 0 0 1 2043.27 322)">Semibold</text>
  <text style="stroke:none;fill:black;font-family:sans-serif;font-size:13;text-anchor:middle;" transform="matrix(1 0 0 1 2339.98 322)">Bold</text>
  <text style="stroke:none;fill:black;font-family:sans-serif;font-size:13;text-anchor:middle;" transform="matrix(1 0 0 1 2636.69 322)">Heavy</text>
  <text style="stroke:none;fill:black;font-family:sans-serif;font-size:13;text-anchor:middle;" transform="matrix(1 0 0 1 2933.4 322)">Black</text>
  <line style="fill:none;stroke:black;opacity:1;stroke-width:0.5;" x1="263" x2="3036" y1="1903" y2="1903"/>
  <g transform="matrix(0.2 0 0 0.2 263 1933)">
   <path d="m46.2402 4.15039c21.7773 0 39.4531-17.627 39.4531-39.4043s-17.6758-39.4043-39.4531-39.4043c-21.7285 0-39.4043 17.627-39.4043 39.4043s17.6758 39.4043 39.4043 39.4043Zm0-7.42188c-17.6758 0-31.9336-14.3066-31.9336-31.9824s14.2578-31.9824 31.9336-31.9824 31.9824 14.3066 31.9824 31.9824-14.3066 31.9824-31.9824 31.9824Zm-17.9688-31.9824c0 2.14844 1.51367 3.61328 3.75977 3.61328h10.498v10.5957c0 2.19727 1.46484 3.71094 3.61328 3.71094 2.24609 0 3.71094-1.51367 3.71094-3.71094v-10.5957h10.5957c2.19727 0 3.71094-1.46484 3.71094-3.61328 0-2.19727-1.51367-3.71094-3.71094-3.71094h-10.5957v-10.5469c0-2.24609-1.46484-3.75977-3.71094-3.75977-2.14844 0-3.61328 1.51367-3.61328 3.75977v10.5469h-10.498c-2.24609 0-3.75977 1.51367-3.75977 3.71094Z"/>
  </g>
  <g transform="matrix(0.2 0 0 0.2 281.506 1933)">
   <path d="m58.5449 14.5508c27.4902 0 49.8047-22.3145 49.8047-49.8047s-22.3145-49.8047-49.8047-49.8047-49.8047 22.3145-49.8047 49.8047 22.3145 49.8047 49.8047 49.8047Zm0-8.30078c-22.9492 0-41.5039-18.5547-41.5039-41.5039s18.5547-41.5039 41.5039-41.5039 41.5039 18.5547 41.5039 41.5039-18.5547 41.5039-41.5039 41.5039Zm-22.6562-41.5039c0 2.39258 1.66016 4.00391 4.15039 4.00391h14.3555v14.4043c0 2.44141 1.66016 4.15039 4.05273 4.15039 2.44141 0 4.15039-1.66016 4.15039-4.15039v-14.4043h14.4043c2.44141 0 4.15039-1.61133 4.15039-4.00391 0-2.44141-1.70898-4.15039-4.15039-4.15039h-14.4043v-14.3555c0-2.49023-1.70898-4.19922-4.15039-4.19922-2.39258 0-4.05273 1.70898-4.05273 4.19922v14.3555h-14.3555c-2.49023 0-4.15039 1.70898-4.15039 4.15039Z"/>
  </g>
  <g transform="matrix(0.2 0 0 0.2 304.924 1933)">
   <path d="m74.8535 28.3203c35.1074 0 63.623-28.4668 63.623-63.5742s-28.5156-63.623-63.623-63.623-63.5742 28.5156-63.5742 63.623 28.4668 63.5742 63.5742 63.5742Zm0-9.08203c-30.127 0-54.4922-24.3652-54.4922-54.4922s24.3652-54.4922 54.4922-54.4922 54.4922 24.3652 54.4922 54.4922-24.3652 54.4922-54.4922 54.4922Zm-28.8574-54.4922c0 2.58789 1.85547 4.39453 4.58984 4.39453h19.7266v19.7754c0 2.68555 1.85547 4.58984 4.44336 4.58984 2.68555 0 4.54102-1.85547 4.54102-4.58984v-19.7754h19.7754c2.68555 0 4.58984-1.80664 4.58984-4.39453 0-2.73438-1.85547-4.58984-4.58984-4.58984h-19.7754v-19.7266c0-2.73438-1.85547-4.63867-4.54102-4.63867-2.58789 0-4.44336 1.9043-4.44336 4.63867v19.7266h-19.7266c-2.73438 0-4.58984 1.85547-4.58984 4.58984Z"/>
  </g>
  <text style="stroke:none;fill:black;font-family:sans-serif;font-size:13;font-weight:bold;" transform="matrix(1 0 0 1 263 1953)">Design Variations</text>
  <text style="stroke:none;fill:black;font-family:sans-serif;font-size:13;" transform="matrix(1 0 0 1 263 1971)">Symbols are supported in up to nine weights and three scales.</text>
  <text style="stroke:none;fill:black;font-family:sans-serif;font-size:13;" transform="matrix(1 0 0 1 263 1989)">For optimal layout with text and other symbols, vertically align</text>
  <text style="stroke:none;fill:black;font-family:sans-serif;font-size:13;" transform="matrix(1 0 0 1 263 2007)">symbols with the adjacent text.</text>
  <line style="fill:none;stroke:#00AEEF;stroke-width:0.5;opacity:1.0;" x1="776" x2="776" y1="1919" y2="1933"/>
  <g transform="matrix(0.2 0 0 0.2 776 1933)">
   <path d="m16.5527 0.78125c2.58789 0 3.85742-0.976562 4.78516-3.71094l6.29883-17.2363h28.8086l6.29883 17.2363c0.927734 2.73438 2.19727 3.71094 4.73633 3.71094 2.58789 0 4.24805-1.5625 4.24805-4.00391 0-0.830078-0.146484-1.61133-0.537109-2.63672l-22.9004-60.9863c-1.12305-2.97852-3.125-4.49219-6.25-4.49219-3.02734 0-5.07812 1.46484-6.15234 4.44336l-22.9004 61.084c-0.390625 1.02539-0.537109 1.80664-0.537109 2.63672 0 2.44141 1.5625 3.95508 4.10156 3.95508Zm13.4766-28.3691 11.8652-32.8613h0.244141l11.8652 32.8613Z"/>
  </g>
  <line style="fill:none;stroke:#00AEEF;stroke-width:0.5;opacity:1.0;" x1="792.836" x2="792.836" y1="1919" y2="1933"/>
  <text style="stroke:none;fill:black;font-family:sans-serif;font-size:13;font-weight:bold;" transform="matrix(1 0 0 1 776 1953)">Margins</text>
  <text style="stroke:none;fill:black;font-family:sans-serif;font-size:13;" transform="matrix(1 0 0 1 776 1971)">Leading and trailing margins on the left and right side of each symbol</text>
  <text style="stroke:none;fill:black;font-family:sans-serif;font-size:13;" transform="matrix(1 0 0 1 776 1989)">can be adjusted by modifying the x-location of the margin guidelines.</text>
  <text style="stroke:none;fill:black;font-family:sans-serif;font-size:13;" transform="matrix(1 0 0 1 776 2007)">Modifications are automatically applied proportionally to all</text>
  <text style="stroke:none;fill:black;font-family:sans-serif;font-size:13;" transform="matrix(1 0 0 1 776 2025)">scales and weights.</text>
  <g transform="matrix(0.2 0 0 0.2 1289 1933)">
   <path d="m14.209 9.32617 8.49609 8.54492c4.29688 4.3457 9.22852 4.05273 13.8672-1.07422l53.4668-58.9355-4.83398-4.88281-53.0762 58.3984c-1.75781 2.00195-3.41797 2.49023-5.76172 0.146484l-5.85938-5.81055c-2.34375-2.29492-1.80664-4.00391 0.195312-5.81055l57.373-54.0039-4.88281-4.83398-57.959 54.4434c-4.93164 4.58984-5.32227 9.47266-1.02539 13.8184Zm32.0801-90.9668c-2.09961 2.05078-2.24609 4.93164-1.07422 6.88477 1.17188 1.80664 3.4668 2.97852 6.68945 2.14844 7.32422-1.70898 14.9414-2.00195 22.0703 2.68555l-2.92969 7.27539c-1.70898 4.15039-0.830078 7.08008 1.85547 9.81445l11.4746 11.5723c2.44141 2.44141 4.49219 2.53906 7.32422 2.05078l5.32227-0.976562 3.32031 3.36914-0.195312 2.7832c-0.195312 2.49023 0.439453 4.39453 2.88086 6.78711l3.80859 3.71094c2.39258 2.39258 5.46875 2.53906 7.8125 0.195312l14.5508-14.5996c2.34375-2.34375 2.24609-5.32227-0.146484-7.71484l-3.85742-3.80859c-2.39258-2.39258-4.24805-3.17383-6.64062-2.97852l-2.88086 0.244141-3.22266-3.17383 1.2207-5.61523c0.634766-2.83203-0.146484-5.0293-3.07617-7.95898l-10.9863-10.9375c-16.6992-16.6016-38.8672-16.2109-53.3203-1.75781Zm7.4707 1.85547c12.1582-8.88672 28.6133-7.37305 39.7461 3.75977l12.1582 12.0605c1.17188 1.17188 1.36719 2.09961 1.02539 3.80859l-1.61133 7.42188 7.51953 7.42188 4.93164-0.292969c1.26953-0.0488281 1.66016 0.0488281 2.63672 1.02539l2.88086 2.88086-12.207 12.207-2.88086-2.88086c-0.976562-0.976562-1.12305-1.36719-1.07422-2.68555l0.341797-4.88281-7.4707-7.42188-7.61719 1.26953c-1.61133 0.341797-2.34375 0.195312-3.56445-0.976562l-10.0098-10.0098c-1.26953-1.17188-1.41602-2.00195-0.634766-3.85742l4.39453-10.4492c-7.8125-7.27539-17.9688-10.4004-28.125-7.42188-0.78125 0.195312-1.07422-0.439453-0.439453-0.976562Z"/>
  </g>
  <text style="stroke:none;fill:black;font-family:sans-serif;font-size:13;font-weight:bold;" transform="matrix(1 0 0 1 1289 1953)">Exporting</text>
  <text style="stroke:none;fill:black;font-family:sans-serif;font-size:13;" transform="matrix(1 0 0 1 1289 1971)">Symbols should be outlined when exporting to ensure the</text>
  <text style="stroke:none;fill:black;font-family:sans-serif;font-size:13;" transform="matrix(1 0 0 1 1289 1989)">design is preserved when submitting to Xcode.</text>
  <text id="template-version" style="stroke:none;fill:black;font-family:sans-serif;font-size:13;text-anchor:end;" transform="matrix(1 0 0 1 3036 1933)">Template v.6.0</text>
  <text style="stroke:none;fill:black;font-family:sans-serif;font-size:13;text-anchor:end;" transform="matrix(1 0 0 1 3036 1951)">Requires Xcode 16 or greater</text>
  <text id="descriptive-name" style="stroke:none;fill:black;font-family:sans-serif;font-size:13;text-anchor:end;" transform="matrix(1 0 0 1 3036 1969)">Generated from floppyDisk</text>
  <text style="stroke:none;fill:black;font-family:sans-serif;font-size:13;text-anchor:end;" transform="matrix(1 0 0 1 3036 1987)">Typeset at 100.0 points</text>
  <text style="stroke:none;fill:black;font-family:sans-serif;font-size:13;" transform="matrix(1 0 0 1 263 726)">Small</text>
  <text style="stroke:none;fill:black;font-family:sans-serif;font-size:13;" transform="matrix(1 0 0 1 263 1156)">Medium</text>
  <text style="stroke:none;fill:black;font-family:sans-serif;font-size:13;" transform="matrix(1 0 0 1 263 1586)">Large</text>
 </g>
 <g id="Guides">
  <g id="H-reference" style="fill:#27AAE1;stroke:none;" transform="matrix(1 0 0 1 339 696)">
   <path d="M0.993654 0L3.63775 0L29.3281-67.1323L30.0303-67.1323L30.0303-70.459L28.1226-70.459ZM11.6885-24.4799L46.9815-24.4799L46.2315-26.7285L12.4385-26.7285ZM55.1196 0L57.7637 0L30.6382-70.459L29.4326-70.459L29.4326-67.1323Z"/>
  </g>
  <line id="Baseline-S" style="fill:none;stroke:#27AAE1;opacity:1;stroke-width:0.5;" x1="263" x2="3036" y1="696" y2="696"/>
  <line id="Capline-S" style="fill:none;stroke:#27AAE1;opacity:1;stroke-width:0.5;" x1="263" x2="3036" y1="625.541" y2="625.541"/>
  <g id="H-reference" style="fill:#27AAE1;stroke:none;" transform="matrix(1 0 0 1 339 1126)">
   <path d="M0.993654 0L3.63775 0L29.3281-67.1323L30.0303-67.1323L30.0303-70.459L28.1226-70.459ZM11.6885-24.4799L46.9815-24.4799L46.2315-26.7285L12.4385-26.7285ZM55.1196 0L57.7637 0L30.6382-70.459L29.4326-70.459L29.4326-67.1323Z"/>
  </g>
  <line id="Baseline-M" style="fill:none;stroke:#27AAE1;opacity:1;stroke-width:0.5;" x1="263" x2="3036" y1="1126" y2="1126"/>
  <line id="Capline-M" style="fill:none;stroke:#27AAE1;opacity:1;stroke-width:0.5;" x1="263" x2="3036" y1="1055.54" y2="1055.54"/>
  <g id="H-reference" style="fill:#27AAE1;stroke:none;" transform="matrix(1 0 0 1 339 1556)">
   <path d="M0.993654 0L3.63775 0L29.3281-67.1323L30.0303-67.1323L30.0303-70.459L28.1226-70.459ZM11.6885-24.4799L46.9815-24.4799L46.2315-26.7285L12.4385-26.7285ZM55.1196 0L57.7637 0L30.6382-70.459L29.4326-70.459L29.4326-67.1323Z"/>
  </g>
  <line id="Baseline-L" style="fill:none;stroke:#27AAE1;opacity:1;stroke-width:0.5;" x1="263" x2="3036" y1="1556" y2="1556"/>
  <line id="Capline-L" style="fill:none;stroke:#27AAE1;opacity:1;stroke-width:0.5;" x1="263" x2="3036" y1="1485.54" y2="1485.54"/>
  <line id="right-margin-Regular-M" style="fill:none;stroke:#00AEEF;stroke-width:0.5;opacity:1.0;" x1="1507.24" x2="1507.24" y1="1030.79" y2="1150.12"/>
  <line id="left-margin-Regular-M" style="fill:none;stroke:#00AEEF;stroke-width:0.5;opacity:1.0;" x1="1392.44" x2="1392.44" y1="1030.79" y2="1150.12"/>
 </g>
 <g id="Symbols">
  <g id="Black-L" transform="matrix(1 0 0 1 2861.35 1556)">
   <path class="monochrome-0 multicolor-0:tintColor hierarchical-0:primary SFSymbolsPreviewWireframe" d="M131.3-69.6L107.1-93.8C105.9-95 104.3-95.7 102.5-95.7L34.1-95.7C19.5-95.7 11.1-87.3 11.1-72.7L11.1 3.4C11.1 18 19.5 26.4 34.1 26.4L110.2 26.4C124.6 26.4 133.2 17.8 133.2 3.4L133.2-65C133.2-66.7 132.5-68.3 131.3-69.6L131.3-69.6ZM91.3-21.1L91.3 9.1L53.2 9.1L53.2-21.1L91.3-21.1ZM53.1-70.7L53.1-78.4L91.2-78.4L91.2-70.7L53.1-70.7ZM95.7-39L48.7-39C41.3-39 35.3-33 35.3-25.6L35.3 9.1L34.4 9.1C29.8 9.1 28.5 7.8 28.5 3.2L28.5-72.5C28.5-77.1 29.8-78.4 34.4-78.4L35.3-78.4L35.3-66.2C35.3-58.8 41.3-52.8 48.7-52.8L95.7-52.8C103.1-52.8 109.1-58.8 109.1-66.2L109.1-67.2L115.9-60.4L115.9 3.2C115.9 7.7 114.5 9.1 110 9.1L109.1 9.1L109.1-25.6C109.1-33 103.1-39 95.7-39L95.7-39Z"/>
  </g>
  <g id="Heavy-L" transform="matrix(1 0 0 1 2564.64 1556)">
   <path class="monochrome-0 multicolor-0:tintColor hierarchical-0:primary SFSymbolsPreviewWireframe" d="M131.3-70.5L107.1-94.7C105.9-95.9 104.3-96.6 102.5-96.6L34.1-96.6C19.5-96.6 11.1-88.2 11.1-73.6L11.1 2.5C11.1 17.1 19.5 25.5 34.1 25.5L110.2 25.5C124.6 25.5 133.2 16.9 133.2 2.5L133.2-65.9C133.2-67.6 132.5-69.2 131.3-70.5L131.3-70.5ZM91.3-22L91.3 8.2L53.2 8.2L53.2-22L91.3-22ZM53.1-71.6L53.1-79.3L91.2-79.3L91.2-71.6L53.1-71.6ZM95.7-39.9L48.7-39.9C41.3-39.9 35.3-33.9 35.3-26.5L35.3 8.2L34.4 8.2C29.8 8.2 28.5 6.9 28.5 2.3L28.5-73.4C28.5-78 29.8-79.3 34.4-79.3L35.3-79.3L35.3-67.1C35.3-59.7 41.3-53.7 48.7-53.7L95.7-53.7C103.1-53.7 109.1-59.7 109.1-67.1L109.1-68.1L115.9-61.3L115.9 2.3C115.9 6.8 114.5 8.2 110 8.2L109.1 8.2L109.1-26.5C109.1-33.9 103.1-39.9 95.7-39.9L95.7-39.9Z"/>
  </g>
  <g id="Bold-L" transform="matrix(1 0 0 1 2267.93 1556)">
   <path class="monochrome-0 multicolor-0:tintColor hierarchical-0:primary SFSymbolsPreviewWireframe" d="M131.3-71.6L107.1-95.8C105.9-97 104.3-97.7 102.5-97.7L34.1-97.7C19.5-97.7 11.1-89.3 11.1-74.7L11.1 1.4C11.1 16 19.5 24.4 34.1 24.4L110.2 24.4C124.6 24.4 133.2 15.8 133.2 1.4L133.2-67C133.2-68.7 132.5-70.3 131.3-71.6L131.3-71.6ZM91.2-23.2L91.2 7L53.1 7L53.1-23.2L91.2-23.2ZM53.1-72.7L53.1-80.4L91.2-80.4L91.2-72.7L53.1-72.7ZM95.7-41.1L48.7-41.1C41.3-41.1 35.3-35.1 35.3-27.7L35.3 7L34.4 7C29.8 7 28.5 5.7 28.5 1.1L28.5-74.6C28.5-79.2 29.8-80.5 34.4-80.5L35.3-80.5L35.3-68.3C35.3-60.9 41.3-54.9 48.7-54.9L95.7-54.9C103.1-54.9 109.1-60.9 109.1-68.3L109.1-69.3L115.9-62.5L115.9 1.1C115.9 5.6 114.5 7 110 7L109.1 7L109.1-27.7C109.1-35.1 103.1-41.1 95.7-41.1L95.7-41.1Z"/>
  </g>
  <g id="Semibold-L" transform="matrix(1 0 0 1 1972.02 1556)">
   <path class="monochrome-0 multicolor-0:tintColor hierarchical-0:primary SFSymbolsPreviewWireframe" d="M129.9-71L105.7-95.2C104.6-96.3 103.2-96.9 101.7-96.9L33.3-96.9C19.2-96.9 11.1-88.8 11.1-74.8L11.1 1.3C11.1 15.4 19.2 23.4 33.3 23.4L109.4 23.4C123.3 23.4 131.6 15.1 131.6 1.3L131.6-67.1C131.6-68.6 131-70 129.9-71.1L129.9-71.1ZM91.2-24L91.2 7.8L51.4 7.8L51.4-24L91.2-24ZM51.5-71.9L51.5-81.2L91.3-81.2L91.3-71.9L51.5-71.9L51.5-71.9ZM94.9-40.2L47.9-40.2C40.9-40.2 35.3-34.5 35.3-27.6L35.3 7.9L33.6 7.9C28.6 7.9 26.9 6.3 26.9 1.2L26.9-74.5C26.9-79.6 28.5-81.2 33.6-81.2L35.3-81.2L35.3-68.2C35.3-61.2 41-55.6 47.9-55.6L94.9-55.6C101.9-55.6 107.5-61.3 107.5-68.2L107.5-71.1L115.9-62.7L115.9 1.2C115.9 6.1 114.2 7.9 109.2 7.9L107.5 7.9L107.5-27.6C107.5-34.6 101.8-40.2 94.9-40.2L94.9-40.2Z"/>
  </g>
  <g id="Medium-L" transform="matrix(1 0 0 1 1676.11 1556)">
   <path class="monochrome-0 multicolor-0:tintColor hierarchical-0:primary SFSymbolsPreviewWireframe" d="M128.5-70.2L104.3-94.4C103.4-95.3 102.2-95.8 100.9-95.8L32.5-95.8C18.9-95.8 11.1-88 11.1-74.5L11.1 1.6C11.1 15.2 18.9 22.9 32.5 22.9L108.6 22.9C122 22.9 130 14.9 130 1.6L130-66.8C130-68.1 129.5-69.3 128.6-70.2L128.6-70.2ZM91.2-24.5L91.2 8.9L49.8 8.9L49.8-24.5L91.2-24.5ZM49.9-70.8L49.9-81.7L91.3-81.7L91.3-70.8L49.9-70.8ZM94.1-39.2L47.1-39.2C40.6-39.2 35.3-33.9 35.3-27.4L35.3 8.9L32.8 8.9C27.3 8.9 25.3 6.9 25.3 1.4L25.3-74.3C25.3-79.8 27.3-81.8 32.8-81.8L35.3-81.8L35.3-68C35.3-61.5 40.6-56.2 47.1-56.2L94.1-56.2C100.6-56.2 105.9-61.5 105.9-68L105.9-72.8L115.9-62.8L115.9 1.5C115.9 6.9 113.8 9 108.4 9L105.9 9L105.9-27.3C105.9-33.8 100.6-39.1 94.1-39.1L94.1-39.1Z"/>
  </g>
  <g id="Regular-L" transform="matrix(1 0 0 1 1380.19 1556)">
   <path class="monochrome-0 multicolor-0:tintColor hierarchical-0:primary SFSymbolsPreviewWireframe" d="M127.1-69.6L102.9-93.8C102.1-94.6 101.1-95 100.1-95L31.7-95C18.6-95 11.1-87.5 11.1-74.5L11.1 1.6C11.1 14.7 18.6 22.1 31.7 22.1L107.8 22.1C120.7 22.1 128.4 14.4 128.4 1.6L128.4-66.8C128.4-67.9 128-68.9 127.2-69.6L127.2-69.6ZM48.2-82.6L91.2-82.6L91.2-70L48.2-70L48.2-82.6ZM91.1 9.7L48.1 9.7L48.1-25.4L91.1-25.4L91.1 9.7ZM115.8 1.5C115.8 7.3 113.3 9.8 107.5 9.8L104.2 9.8L104.2-27.3C104.2-33.4 99.3-38.3 93.2-38.3L46.2-38.3C40.1-38.3 35.2-33.4 35.2-27.3L35.2 9.8L31.9 9.8C25.9 9.8 23.6 7.5 23.6 1.5L23.6-74.2C23.6-80.2 25.9-82.5 31.9-82.5L35.2-82.5L35.2-67.9C35.2-61.8 40.1-56.9 46.2-56.9L93.2-56.9C99.3-56.9 104.2-61.8 104.2-67.9L104.2-74.7L115.8-63.1L115.8 1.5L115.8 1.5Z"/>
  </g>
  <g id="Light-L" transform="matrix(1 0 0 1 1085.98 1556)">
   <path class="monochrome-0 multicolor-0:tintColor hierarchical-0:primary SFSymbolsPreviewWireframe" d="M123-66.4L98.8-90.6L98.3-91.1L29.2-91.1C17.5-91.1 11.1-84.7 11.1-73L11.1 3.1C11.1 14.8 17.5 21.2 29.2 21.2L105.3 21.2C116.8 21.2 123.4 14.6 123.4 3.1L123.4-66L122.9-66.5L122.9-66.5ZM91.2-66.4C91.2-66.2 91-66 90.8-66L43.8-66C43.6-66 43.4-66.2 43.4-66.4L43.4-83.4L91.2-83.4L91.2-66.4ZM90.8-34.4L43.8-34.4C39.1-34.4 35.2-30.5 35.2-25.8L35.2 13.7L29.4 13.7C22.1 13.7 18.7 10.3 18.7 3L18.7-72.7C18.7-80 22.1-83.4 29.4-83.4L35.2-83.4L35.2-66.4C35.2-61.7 39.1-57.8 43.8-57.8L90.8-57.8C95.5-57.8 99.4-61.7 99.4-66.4L99.4-79L115.8-62.6L115.8 3C115.8 10.2 112.3 13.7 105.1 13.7L99.3 13.7L99.3-25.8C99.3-30.5 95.4-34.4 90.7-34.4L90.7-34.4ZM43.4-25.8C43.4-26 43.6-26.2 43.8-26.2L90.8-26.2C91-26.2 91.2-26 91.2-25.8L91.2 13.7L43.4 13.7L43.4-25.8Z"/>
  </g>
  <g id="Thin-L" transform="matrix(1 0 0 1 790.872 1556)">
   <path class="monochrome-0 multicolor-0:tintColor hierarchical-0:primary SFSymbolsPreviewWireframe" d="M96-88.9L27.6-88.9C16.8-88.9 11.1-83.2 11.1-72.4L11.1 3.7C11.1 14.5 16.8 20.2 27.6 20.2L103.7 20.2C114.4 20.2 120.2 14.3 120.2 3.7L120.2-64.7L96-88.9L96-88.9ZM40.1-25.3C40.1-26.4 41-27.3 42.1-27.3L89.1-27.3C90.2-27.3 91.1-26.4 91.1-25.3L91.1 15.8L40.1 15.8L40.1-25.3ZM89.1-32.3L42.1-32.3C38.2-32.3 35.1-29.2 35.1-25.3L35.1 15.8L27.7 15.8C19.5 15.8 15.4 11.7 15.4 3.5L15.4-72.2C15.4-80.4 19.5-84.5 27.7-84.5L35.1-84.5L35.1-65.9C35.1-62 38.2-58.9 42.1-58.9L89.1-58.9C93-58.9 96.1-62 96.1-65.9L96.1-82.4L115.8-62.7L115.8 3.6C115.8 11.7 111.5 15.9 103.5 15.9L96.1 15.9L96.1-25.2C96.1-29.1 93-32.2 89.1-32.2L89.1-32.2ZM91.1-84.5L91.1-65.9C91.1-64.8 90.2-63.9 89.1-63.9L42.1-63.9C41-63.9 40.1-64.8 40.1-65.9L40.1-84.5L91.1-84.5Z"/>
  </g>
  <g id="Ultralight-L" transform="matrix(1 0 0 1 494.161 1556)">
   <path class="monochrome-0 multicolor-0:tintColor hierarchical-0:primary SFSymbolsPreviewWireframe" d="M96-90.3L27.6-90.3C16.8-90.3 11.1-84.6 11.1-73.8L11.1 2.3C11.1 13.1 16.8 18.8 27.6 18.8L103.7 18.8C114.4 18.8 120.2 12.9 120.2 2.3L120.2-66.1L96-90.3L96-90.3ZM40.1-26.6C40.1-27.7 41-28.6 42.1-28.6L89.1-28.6C90.2-28.6 91.1-27.7 91.1-26.6L91.1 14.5L40.1 14.5L40.1-26.6ZM89.1-33.6L42.1-33.6C38.2-33.6 35.1-30.5 35.1-26.6L35.1 14.5L27.7 14.5C19.5 14.5 15.4 10.4 15.4 2.2L15.4-73.5C15.4-81.7 19.5-85.8 27.7-85.8L35.1-85.8L35.1-67.2C35.1-63.3 38.2-60.2 42.1-60.2L89.1-60.2C93-60.2 96.1-63.3 96.1-67.2L96.1-83.7L115.8-64L115.8 2.3C115.8 10.4 111.5 14.6 103.5 14.6L96.1 14.6L96.1-26.5C96.1-30.4 93-33.5 89.1-33.5L89.1-33.5ZM91.1-85.9L91.1-67.3C91.1-66.2 90.2-65.3 89.1-65.3L42.1-65.3C41-65.3 40.1-66.2 40.1-67.3L40.1-85.9L91.1-85.9Z"/>
  </g>
  <g id="Black-M" transform="matrix(1 0 0 1 2874.1 1126)">
   <path class="monochrome-0 multicolor-0:tintColor hierarchical-0:primary SFSymbolsPreviewWireframe" d="M106.1-62.9L87-82C86-83 84.8-83.5 83.4-83.5L29.3-83.5C17.8-83.5 11.1-76.9 11.1-65.3L11.1-5.1C11.1 6.4 17.7 13.1 29.3 13.1L89.5 13.1C100.9 13.1 107.7 6.3 107.7-5.1L107.7-59.2C107.7-60.6 107.2-61.8 106.2-62.8L106.2-62.8ZM74.4-24.6L74.4-0.7L44.2-0.7L44.2-24.6L74.4-24.6ZM44.2-63.7L44.2-69.8L74.4-69.8L74.4-63.7L44.2-63.7ZM77.9-38.7L40.7-38.7C34.8-38.7 30.1-33.9 30.1-28.1L30.1-0.7L29.4-0.7C25.8-0.7 24.8-1.7 24.8-5.3L24.8-65.2C24.8-68.8 25.8-69.8 29.4-69.8L30.1-69.8L30.1-60.2C30.1-54.3 34.9-49.6 40.7-49.6L77.9-49.6C83.8-49.6 88.5-54.4 88.5-60.2L88.5-61L93.9-55.6L93.9-5.3C93.9-1.7 92.8-0.7 89.3-0.7L88.6-0.7L88.6-28.1C88.6-34 83.8-38.7 78-38.7L78-38.7Z"/>
  </g>
  <g id="Heavy-M" transform="matrix(1 0 0 1 2577.39 1126)">
   <path class="monochrome-0 multicolor-0:tintColor hierarchical-0:primary SFSymbolsPreviewWireframe" d="M106.1-63.5L87-82.6C86-83.6 84.8-84.1 83.4-84.1L29.3-84.1C17.8-84.1 11.1-77.5 11.1-65.9L11.1-5.7C11.1 5.8 17.7 12.5 29.3 12.5L89.5 12.5C100.9 12.5 107.7 5.7 107.7-5.7L107.7-59.8C107.7-61.2 107.2-62.4 106.2-63.4L106.2-63.4ZM74.4-25.2L74.4-1.3L44.2-1.3L44.2-25.2L74.4-25.2ZM44.2-64.4L44.2-70.5L74.4-70.5L74.4-64.4L44.2-64.4ZM77.9-39.4L40.7-39.4C34.8-39.4 30.1-34.6 30.1-28.8L30.1-1.4L29.4-1.4C25.8-1.4 24.8-2.4 24.8-6L24.8-65.9C24.8-69.5 25.8-70.5 29.4-70.5L30.1-70.5L30.1-60.9C30.1-55 34.9-50.3 40.7-50.3L77.9-50.3C83.8-50.3 88.5-55.1 88.5-60.9L88.5-61.7L93.9-56.3L93.9-6C93.9-2.4 92.8-1.4 89.3-1.4L88.6-1.4L88.6-28.8C88.6-34.7 83.8-39.4 78-39.4L78-39.4Z"/>
  </g>
  <g id="Bold-M" transform="matrix(1 0 0 1 2280.68 1126)">
   <path class="monochrome-0 multicolor-0:tintColor hierarchical-0:primary SFSymbolsPreviewWireframe" d="M106.1-64.4L87-83.5C86-84.5 84.8-85 83.4-85L29.3-85C17.8-85 11.1-78.4 11.1-66.8L11.1-6.6C11.1 4.9 17.7 11.6 29.3 11.6L89.5 11.6C100.9 11.6 107.7 4.8 107.7-6.6L107.7-60.7C107.7-62.1 107.2-63.3 106.2-64.3L106.2-64.3ZM74.5-26.1L74.5-2.2L44.3-2.2L44.3-26.1L74.5-26.1ZM44.3-65.3L44.3-71.4L74.5-71.4L74.5-65.3L44.3-65.3ZM78-40.3L40.8-40.3C34.9-40.3 30.2-35.5 30.2-29.7L30.2-2.3L29.5-2.3C25.9-2.3 24.9-3.3 24.9-6.9L24.9-66.8C24.9-70.4 25.9-71.4 29.5-71.4L30.2-71.4L30.2-61.8C30.2-55.9 35-51.2 40.8-51.2L78-51.2C83.9-51.2 88.6-56 88.6-61.8L88.6-62.6L94-57.2L94-6.9C94-3.3 92.9-2.3 89.4-2.3L88.7-2.3L88.7-29.7C88.7-35.6 83.9-40.3 78.1-40.3L78.1-40.3Z"/>
  </g>
  <g id="Semibold-M" transform="matrix(1 0 0 1 1984.67 1126)">
   <path class="monochrome-0 multicolor-0:tintColor hierarchical-0:primary SFSymbolsPreviewWireframe" d="M105-64L85.9-83.1C85.1-83.9 83.9-84.4 82.7-84.4L28.6-84.4C17.5-84.4 11.1-78 11.1-66.9L11.1-6.7C11.1 4.4 17.5 10.8 28.6 10.8L88.8 10.8C99.8 10.8 106.3 4.3 106.3-6.7L106.3-60.8C106.3-62 105.8-63.1 105-64ZM74.4-26.7L74.4-1.5L43-1.5L43-26.7L74.4-26.7ZM42.9-64.6L42.9-72L74.3-72L74.3-64.6L42.9-64.6L42.9-64.6ZM77.3-39.6L40.1-39.6C34.6-39.6 30.1-35.1 30.1-29.6L30.1-1.5L28.7-1.5C24.7-1.5 23.4-2.8 23.4-6.8L23.4-66.7C23.4-70.7 24.7-72 28.7-72L30.1-72L30.1-61.7C30.1-56.2 34.6-51.7 40.1-51.7L77.3-51.7C82.8-51.7 87.3-56.2 87.3-61.7L87.3-64L93.9-57.4L93.9-6.8C93.9-2.9 92.5-1.5 88.6-1.5L87.2-1.5L87.2-29.6C87.2-35.1 82.7-39.6 77.2-39.6L77.2-39.6Z"/>
  </g>
  <g id="Medium-M" transform="matrix(1 0 0 1 1688.56 1126)">
   <path class="monochrome-0 multicolor-0:tintColor hierarchical-0:primary SFSymbolsPreviewWireframe" d="M103.9-63.4L84.8-82.5C84.1-83.2 83.1-83.6 82.1-83.6L28-83.6C17.3-83.6 11.1-77.4 11.1-66.7L11.1-6.5C11.1 4.2 17.3 10.4 28 10.4L88.2 10.4C98.8 10.4 105.1 4.1 105.1-6.5L105.1-60.6C105.1-61.6 104.7-62.6 104-63.3L103.9-63.3ZM74.4-27.2L74.4-0.7L41.7-0.7L41.7-27.2L74.4-27.2ZM41.7-63.8L41.7-72.5L74.4-72.5L74.4-63.8L41.7-63.8ZM76.7-38.8L39.5-38.8C34.3-38.8 30.1-34.6 30.1-29.4L30.1-0.7L28.1-0.7C23.7-0.7 22.2-2.2 22.2-6.6L22.2-66.5C22.2-70.9 23.7-72.4 28.1-72.4L30.1-72.4L30.1-61.5C30.1-56.3 34.3-52.1 39.5-52.1L76.7-52.1C81.9-52.1 86.1-56.3 86.1-61.5L86.1-65.3L94-57.4L94-6.6C94-2.3 92.3-0.7 88.1-0.7L86.1-0.7L86.1-29.4C86.1-34.6 81.9-38.8 76.7-38.8Z"/>
  </g>
  <g id="Regular-M" transform="matrix(1 0 0 1 1392.44 1126)">
   <path class="monochrome-0 multicolor-0:tintColor hierarchical-0:primary SFSymbolsPreviewWireframe" d="M102.9-62.9L83.8-82C83.2-82.6 82.4-82.9 81.5-82.9L27.4-82.9C17.1-82.9 11.1-77 11.1-66.7L11.1-6.5C11.1 3.8 17 9.7 27.4 9.7L87.6 9.7C97.8 9.7 103.9 3.6 103.9-6.5L103.9-60.6C103.9-61.4 103.6-62.3 103-62.9L103-62.9ZM40.4-73.1L74.4-73.1L74.4-63.2L40.4-63.2L40.4-73.1ZM74.4-0.1L40.4-0.1L40.4-27.8L74.4-27.8L74.4-0.1ZM93.9-6.6C93.9-2 91.9 0 87.4 0L84.8 0L84.8-29.3C84.8-34.1 80.9-38 76.1-38L38.9-38C34.1-38 30.2-34.1 30.2-29.3L30.2 0L27.6 0C22.9 0 21.1-1.8 21.1-6.6L21.1-66.5C21.1-71.2 22.9-73.1 27.6-73.1L30.2-73.1L30.2-61.6C30.2-56.8 34.1-52.9 38.9-52.9L76.1-52.9C80.9-52.9 84.8-56.8 84.8-61.6L84.8-67L94-57.8L94-6.7L94-6.7Z"/>
  </g>
  <g id="Light-M" transform="matrix(1 0 0 1 1097.73 1126)">
   <path class="monochrome-0 multicolor-0:tintColor hierarchical-0:primary SFSymbolsPreviewWireframe" d="M99.5-60.4L80.4-79.5L80-79.9L25.4-79.9C16.2-79.9 11.1-74.8 11.1-65.6L11.1-5.4C11.1 3.8 16.2 8.9 25.4 8.9L85.6 8.9C94.7 8.9 99.9 3.7 99.9-5.4L99.9-60.1L99.5-60.5L99.5-60.5ZM74.3-60.4C74.3-60.2 74.3-60.1 74-60.1L36.8-60.1C36.6-60.1 36.5-60.1 36.5-60.4L36.5-73.9L74.3-73.9L74.3-60.4ZM74-35.1L36.8-35.1C33.1-35.1 30-32 30-28.3L30 3L25.4 3C19.6 3 16.9 0.3 16.9-5.5L16.9-65.4C16.9-71.2 19.6-73.9 25.4-73.9L30-73.9L30-60.4C30-56.6 33-53.6 36.8-53.6L74-53.6C77.8-53.6 80.8-56.7 80.8-60.4L80.8-70.4L93.8-57.4L93.8-5.5C93.8 0.2 91 3 85.3 3L80.7 3L80.7-28.3C80.7-32.1 77.6-35.1 73.9-35.1L73.9-35.1ZM36.5-28.3C36.5-28.5 36.5-28.6 36.8-28.6L74-28.6C74.2-28.6 74.3-28.6 74.3-28.3L74.3 3L36.5 3L36.5-28.3Z"/>
  </g>
  <g id="Thin-M" transform="matrix(1 0 0 1 802.222 1126)">
   <path class="monochrome-0 multicolor-0:tintColor hierarchical-0:primary SFSymbolsPreviewWireframe" d="M78.3-78.4L24.2-78.4C15.7-78.4 11.1-73.9 11.1-65.3L11.1-5.1C11.1 3.4 15.6 8 24.2 8L84.4 8C92.8 8 97.5 3.4 97.5-5.1L97.5-59.2L78.4-78.3L78.3-78.3ZM34.1-28C34.1-28.9 34.8-29.6 35.7-29.6L72.9-29.6C73.8-29.6 74.5-28.9 74.5-28L74.5 4.5L34.1 4.5L34.1-28L34.1-28ZM72.9-33.6L35.7-33.6C32.7-33.6 30.2-31.1 30.2-28.1L30.2 4.4L24.4 4.4C17.9 4.4 14.7 1.1 14.7-5.3L14.7-65.2C14.7-71.7 18-74.9 24.4-74.9L30.2-74.9L30.2-60.2C30.2-57.2 32.7-54.7 35.7-54.7L72.9-54.7C75.9-54.7 78.4-57.2 78.4-60.2L78.4-73.3L94-57.7L94-5.3C94 1.1 90.6 4.4 84.3 4.4L78.5 4.4L78.5-28.1C78.5-31.1 76-33.6 73-33.6L73-33.6ZM74.5-74.9L74.5-60.2C74.5-59.3 73.8-58.6 72.9-58.6L35.7-58.6C34.8-58.6 34.1-59.3 34.1-60.2L34.1-74.9L74.5-74.9L74.5-74.9Z"/>
  </g>
  <g id="Ultralight-M" transform="matrix(1 0 0 1 505.511 1126)">
   <path class="monochrome-0 multicolor-0:tintColor hierarchical-0:primary SFSymbolsPreviewWireframe" d="M78.3-78.9L24.2-78.9C15.7-78.9 11.1-74.4 11.1-65.8L11.1-5.6C11.1 2.9 15.6 7.5 24.2 7.5L84.4 7.5C92.8 7.5 97.5 2.9 97.5-5.6L97.5-59.7L78.4-78.8L78.3-78.8ZM34.1-28.6C34.1-29.5 34.8-30.2 35.7-30.2L72.9-30.2C73.8-30.2 74.5-29.5 74.5-28.6L74.5 3.9L34.1 3.9L34.1-28.6L34.1-28.6ZM72.9-34.1L35.7-34.1C32.7-34.1 30.2-31.6 30.2-28.6L30.2 3.9L24.4 3.9C17.9 3.9 14.7 0.6 14.7-5.8L14.7-65.7C14.7-72.2 18-75.4 24.4-75.4L30.2-75.4L30.2-60.7C30.2-57.7 32.7-55.2 35.7-55.2L72.9-55.2C75.9-55.2 78.4-57.7 78.4-60.7L78.4-73.8L94-58.2L94-5.8C94 0.6 90.6 3.9 84.3 3.9L78.5 3.9L78.5-28.6C78.5-31.6 76-34.1 73-34.1L73-34.1ZM74.5-75.4L74.5-60.7C74.5-59.8 73.8-59.1 72.9-59.1L35.7-59.1C34.8-59.1 34.1-59.8 34.1-60.7L34.1-75.4L74.5-75.4L74.5-75.4Z"/>
  </g>
  <g id="Black-S" transform="matrix(1 0 0 1 2884.6 696)">
   <path class="monochrome-0 multicolor-0:tintColor hierarchical-0:primary SFSymbolsPreviewWireframe" d="M85.5-57.2L70.5-72.2C69.7-73 68.7-73.4 67.7-73.4L25.3-73.4C16.2-73.4 11.1-68.2 11.1-59.2L11.1-12C11.1-3 16.3 2.2 25.3 2.2L72.5 2.2C81.4 2.2 86.7-3.1 86.7-12L86.7-54.5C86.7-55.6 86.3-56.6 85.5-57.3L85.5-57.3ZM60.6-27.2L60.6-8.4L36.9-8.4L36.9-27.2L60.6-27.2ZM37-57.9L37-62.7L60.7-62.7L60.7-57.9L37-57.9ZM63.4-38.3L34.2-38.3C29.6-38.3 25.9-34.6 25.9-30L25.9-8.5L25.3-8.5C22.5-8.5 21.7-9.3 21.7-12.1L21.7-59.1C21.7-62 22.5-62.7 25.3-62.7L25.9-62.7L25.9-55.1C25.9-50.5 29.6-46.8 34.2-46.8L63.4-46.8C68-46.8 71.7-50.5 71.7-55.1L71.7-55.7L75.9-51.5L75.9-12C75.9-9.2 75.1-8.4 72.3-8.4L71.7-8.4L71.7-29.9C71.7-34.5 68-38.2 63.4-38.2L63.4-38.2Z"/>
  </g>
  <g id="Heavy-S" transform="matrix(1 0 0 1 2587.89 696)">
   <path class="monochrome-0 multicolor-0:tintColor hierarchical-0:primary SFSymbolsPreviewWireframe" d="M85.5-57.2L70.5-72.2C69.7-73 68.7-73.4 67.7-73.4L25.3-73.4C16.2-73.4 11.1-68.2 11.1-59.2L11.1-12C11.1-3 16.3 2.2 25.3 2.2L72.5 2.2C81.4 2.2 86.7-3.1 86.7-12L86.7-54.5C86.7-55.6 86.3-56.6 85.5-57.3L85.5-57.3ZM60.6-27.2L60.6-8.4L36.9-8.4L36.9-27.2L60.6-27.2ZM37-57.9L37-62.7L60.7-62.7L60.7-57.9L37-57.9ZM63.4-38.3L34.2-38.3C29.6-38.3 25.9-34.6 25.9-30L25.9-8.5L25.3-8.5C22.5-8.5 21.7-9.3 21.7-12.1L21.7-59.1C21.7-62 22.5-62.7 25.3-62.7L25.9-62.7L25.9-55.1C25.9-50.5 29.6-46.8 34.2-46.8L63.4-46.8C68-46.8 71.7-50.5 71.7-55.1L71.7-55.7L75.9-51.5L75.9-12C75.9-9.2 75.1-8.4 72.3-8.4L71.7-8.4L71.7-29.9C71.7-34.5 68-38.2 63.4-38.2L63.4-38.2Z"/>
  </g>
  <g id="Bold-S" transform="matrix(1 0 0 1 2291.18 696)">
   <path class="monochrome-0 multicolor-0:tintColor hierarchical-0:primary SFSymbolsPreviewWireframe" d="M85.5-57.9L70.5-72.9C69.7-73.7 68.7-74.1 67.7-74.1L25.3-74.1C16.2-74.1 11.1-68.9 11.1-59.9L11.1-12.7C11.1-3.7 16.3 1.5 25.3 1.5L72.5 1.5C81.4 1.5 86.7-3.8 86.7-12.7L86.7-55.2C86.7-56.3 86.3-57.3 85.5-58L85.5-58ZM60.6-27.8L60.6-9L36.9-9L36.9-27.8L60.6-27.8ZM36.9-58.6L36.9-63.4L60.6-63.4L60.6-58.6L36.9-58.6ZM63.4-38.9L34.2-38.9C29.6-38.9 25.9-35.2 25.9-30.6L25.9-9.1L25.3-9.1C22.5-9.1 21.7-9.9 21.7-12.7L21.7-59.7C21.7-62.6 22.5-63.3 25.3-63.3L25.9-63.3L25.9-55.7C25.9-51.1 29.6-47.4 34.2-47.4L63.4-47.4C68-47.4 71.7-51.1 71.7-55.7L71.7-56.3L75.9-52.1L75.9-12.6C75.9-9.8 75.1-9 72.3-9L71.7-9L71.7-30.5C71.7-35.1 68-38.8 63.4-38.8L63.4-38.8Z"/>
  </g>
  <g id="Semibold-S" transform="matrix(1 0 0 1 1994.87 696)">
   <path class="monochrome-0 multicolor-0:tintColor hierarchical-0:primary SFSymbolsPreviewWireframe" d="M84.8-57.5L69.8-72.5C69.1-73.2 68.3-73.5 67.3-73.5L24.9-73.5C16.2-73.5 11.1-68.5 11.1-59.8L11.1-12.6C11.1-3.9 16.1 1.1 24.9 1.1L72.1 1.1C80.7 1.1 85.9-4 85.9-12.6L85.9-55.1C85.9-56 85.5-56.9 84.9-57.6L84.8-57.6ZM60.8-28.3L60.8-8.5L36.1-8.5L36.1-28.3L60.8-28.3ZM36.1-58L36.1-63.8L60.8-63.8L60.8-58L36.1-58ZM63.1-38.4L33.9-38.4C29.6-38.4 26.1-34.9 26.1-30.6L26.1-8.6L25-8.6C21.9-8.6 20.9-9.6 20.9-12.7L20.9-59.7C20.9-62.8 21.9-63.8 25-63.8L26.1-63.8L26.1-55.7C26.1-51.4 29.6-47.9 33.9-47.9L63.1-47.9C67.4-47.9 70.9-51.4 70.9-55.7L70.9-57.5L76.1-52.3L76.1-12.6C76.1-9.5 75-8.5 72-8.5L70.9-8.5L70.9-30.5C70.9-34.8 67.4-38.3 63.1-38.3L63.1-38.3Z"/>
  </g>
  <g id="Medium-S" transform="matrix(1 0 0 1 1698.76 696)">
   <path class="monochrome-0 multicolor-0:tintColor hierarchical-0:primary SFSymbolsPreviewWireframe" d="M83.8-57L68.8-72C68.2-72.6 67.5-72.9 66.7-72.9L24.3-72.9C15.9-72.9 11.1-68.1 11.1-59.7L11.1-12.5C11.1-4.1 15.9 0.7 24.3 0.7L71.5 0.7C79.8 0.7 84.7-4.2 84.7-12.5L84.7-55C84.7-55.8 84.4-56.6 83.8-57.1L83.8-57.1ZM60.7-28.6L60.7-7.8L35-7.8L35-28.6L60.7-28.6ZM35-57.4L35-64.2L60.7-64.2L60.7-57.4L35-57.4ZM62.4-37.7L33.2-37.7C29.2-37.7 25.9-34.4 25.9-30.4L25.9-7.9L24.3-7.9C20.9-7.9 19.7-9.1 19.7-12.5L19.7-59.5C19.7-62.9 20.9-64.1 24.3-64.1L25.9-64.1L25.9-55.5C25.9-51.5 29.2-48.2 33.2-48.2L62.4-48.2C66.4-48.2 69.7-51.5 69.7-55.5L69.7-58.5L75.9-52.3L75.9-12.4C75.9-9.1 74.6-7.8 71.3-7.8L69.7-7.8L69.7-30.3C69.7-34.3 66.4-37.6 62.4-37.6L62.4-37.6Z"/>
  </g>
  <g id="Regular-S" transform="matrix(1 0 0 1 1402.44 696)">
   <path class="monochrome-0 multicolor-0:tintColor hierarchical-0:primary SFSymbolsPreviewWireframe" d="M83.1-56.6L68.1-71.6C67.6-72.1 67-72.3 66.3-72.3L23.9-72.3C15.8-72.3 11.1-67.7 11.1-59.6L11.1-12.4C11.1-4.3 15.7 0.3 23.9 0.3L71.1 0.3C79.1 0.3 83.9-4.5 83.9-12.4L83.9-54.9C83.9-55.6 83.6-56.2 83.2-56.7L83.2-56.7ZM34.1-64.6L60.8-64.6L60.8-56.8L34.1-56.8L34.1-64.6ZM60.8-7.3L34.1-7.3L34.1-29.1L60.8-29.1L60.8-7.3ZM76.1-12.5C76.1-8.9 74.6-7.4 71-7.4L68.9-7.4L68.9-30.4C68.9-34.2 65.8-37.2 62.1-37.2L32.9-37.2C29.1-37.2 26.1-34.1 26.1-30.4L26.1-7.4L24-7.4C20.3-7.4 18.9-8.8 18.9-12.5L18.9-59.5C18.9-63.2 20.3-64.6 24-64.6L26.1-64.6L26.1-55.5C26.1-51.7 29.2-48.7 32.9-48.7L62.1-48.7C65.9-48.7 68.9-51.8 68.9-55.5L68.9-59.7L76.1-52.5L76.1-12.4L76.1-12.4Z"/>
  </g>
  <g id="Light-S" transform="matrix(1 0 0 1 1107.33 696)">
   <path class="monochrome-0 multicolor-0:tintColor hierarchical-0:primary SFSymbolsPreviewWireframe" d="M80.5-54.7L65.5-69.7L65.2-70L22.3-70C15.1-70 11.1-66 11.1-58.8L11.1-11.6C11.1-4.4 15.1-0.4 22.3-0.4L69.5-0.4C76.6-0.4 80.7-4.5 80.7-11.6L80.7-54.5L80.4-54.8L80.5-54.8ZM60.8-54.7C60.8-54.7 60.8-54.5 60.6-54.5L31.4-54.5C31.4-54.5 31.2-54.5 31.2-54.7L31.2-65.3L60.8-65.3L60.8-54.7L60.8-54.7ZM60.5-34.9L31.3-34.9C28.4-34.9 26-32.5 26-29.6L26-5.1L22.4-5.1C17.9-5.1 15.8-7.2 15.8-11.7L15.8-58.7C15.8-63.2 17.9-65.3 22.4-65.3L26-65.3L26-54.7C26-51.8 28.4-49.4 31.3-49.4L60.5-49.4C63.4-49.4 65.8-51.8 65.8-54.7L65.8-62.5L76-52.3L76-11.6C76-7.1 73.8-5 69.4-5L65.8-5L65.8-29.5C65.8-32.4 63.4-34.8 60.5-34.8L60.5-34.8ZM31.1-29.5C31.1-29.5 31.1-29.7 31.3-29.7L60.5-29.7C60.5-29.7 60.7-29.7 60.7-29.5L60.7-5L31.1-5L31.1-29.5L31.1-29.5Z"/>
  </g>
  <g id="Thin-S" transform="matrix(1 0 0 1 811.622 696)">
   <path class="monochrome-0 multicolor-0:tintColor hierarchical-0:primary SFSymbolsPreviewWireframe" d="M63.7-68.9L21.3-68.9C14.6-68.9 11.1-65.4 11.1-58.7L11.1-11.5C11.1-4.8 14.6-1.3 21.3-1.3L68.5-1.3C75.1-1.3 78.7-4.9 78.7-11.5L78.7-53.9L63.7-68.9ZM29-29.4C29-30.1 29.5-30.6 30.2-30.6L59.4-30.6C60.1-30.6 60.6-30 60.6-29.4L60.6-3.9L29-3.9L29-29.4L29-29.4ZM59.4-33.8L30.2-33.8C27.8-33.8 25.9-31.8 25.9-29.5L25.9-4L21.3-4C16.2-4 13.7-6.6 13.7-11.6L13.7-58.6C13.7-63.7 16.3-66.2 21.3-66.2L25.9-66.2L25.9-54.6C25.9-52.2 27.8-50.3 30.2-50.3L59.4-50.3C61.8-50.3 63.7-52.2 63.7-54.6L63.7-64.8L75.9-52.6L75.9-11.5C75.9-6.5 73.3-3.9 68.3-3.9L63.7-3.9L63.7-29.4C63.7-31.8 61.7-33.7 59.4-33.7L59.4-33.7ZM60.6-66.2L60.6-54.6C60.6-53.9 60-53.4 59.4-53.4L30.2-53.4C29.5-53.4 29-54 29-54.6L29-66.2L60.6-66.2Z"/>
  </g>
  <g id="Ultralight-S" transform="matrix(1 0 0 1 514.911 696)">
   <path class="monochrome-0 multicolor-0:tintColor hierarchical-0:primary SFSymbolsPreviewWireframe" d="M63.7-68.9L21.3-68.9C14.6-68.9 11.1-65.4 11.1-58.7L11.1-11.5C11.1-4.8 14.6-1.3 21.3-1.3L68.5-1.3C75.1-1.3 78.7-4.9 78.7-11.5L78.7-53.9L63.7-68.9ZM29-29.4C29-30.1 29.5-30.6 30.2-30.6L59.4-30.6C60.1-30.6 60.6-30 60.6-29.4L60.6-3.9L29-3.9L29-29.4L29-29.4ZM59.4-33.8L30.2-33.8C27.8-33.8 25.9-31.8 25.9-29.5L25.9-4L21.3-4C16.2-4 13.7-6.6 13.7-11.6L13.7-58.6C13.7-63.7 16.3-66.2 21.3-66.2L25.9-66.2L25.9-54.6C25.9-52.2 27.8-50.3 30.2-50.3L59.4-50.3C61.8-50.3 63.7-52.2 63.7-54.6L63.7-64.8L75.9-52.6L75.9-11.5C75.9-6.5 73.3-3.9 68.3-3.9L63.7-3.9L63.7-29.4C63.7-31.8 61.7-33.7 59.4-33.7L59.4-33.7ZM60.6-66.2L60.6-54.6C60.6-53.9 60-53.4 59.4-53.4L30.2-53.4C29.5-53.4 29-54 29-54.6L29-66.2L60.6-66.2Z"/>
  </g>
 </g>
</svg>
