<?xml version="1.0" encoding="UTF-8"?>
<!--Generator: Apple Native CoreSVG 336-->
<!DOCTYPE svg
PUBLIC "-//W3C//DTD SVG 1.1//EN"
       "http://www.w3.org/Graphics/SVG/1.1/DTD/svg11.dtd">
<svg version="1.1" xmlns="http://www.w3.org/2000/svg" xmlns:xlink="http://www.w3.org/1999/xlink" viewBox="0 0 3300 2200">
 <!--glyph: "", point size: 100.0, font version: "20.0d10e1", template writer version: "138.0.0"-->
 <style>.monochrome-0 {-sfsymbols-motion-group:0;-sfsymbols-layer-tags:-4583f546305500c2}

.multicolor-0:tintColor {-sfsymbols-motion-group:0;-sfsymbols-layer-tags:-4583f546305500c2}

.hierarchical-0:primary {-sfsymbols-motion-group:0;-sfsymbols-layer-tags:-4583f546305500c2}

.SFSymbolsPreviewWireframe {fill:none;opacity:1.0;stroke:black;stroke-width:0.5}
</style>
 <g id="Notes">
  <rect height="2200" id="artboard" style="fill:white;opacity:1" width="3300" x="0" y="0"/>
  <line style="fill:none;stroke:black;opacity:1;stroke-width:0.5;" x1="263" x2="3036" y1="292" y2="292"/>
  <text style="stroke:none;fill:black;font-family:sans-serif;font-size:13;font-weight:bold;" transform="matrix(1 0 0 1 263 322)">Weight/Scale Variations</text>
  <text style="stroke:none;fill:black;font-family:sans-serif;font-size:13;text-anchor:middle;" transform="matrix(1 0 0 1 559.711 322)">Ultralight</text>
  <text style="stroke:none;fill:black;font-family:sans-serif;font-size:13;text-anchor:middle;" transform="matrix(1 0 0 1 856.422 322)">Thin</text>
  <text style="stroke:none;fill:black;font-family:sans-serif;font-size:13;text-anchor:middle;" transform="matrix(1 0 0 1 1153.13 322)">Light</text>
  <text style="stroke:none;fill:black;font-family:sans-serif;font-size:13;text-anchor:middle;" transform="matrix(1 0 0 1 1449.84 322)">Regular</text>
  <text style="stroke:none;fill:black;font-family:sans-serif;font-size:13;text-anchor:middle;" transform="matrix(1 0 0 1 1746.56 322)">Medium</text>
  <text style="stroke:none;fill:black;font-family:sans-serif;font-size:13;text-anchor:middle;" transform="matrix(1 0 0 1 2043.27 322)">Semibold</text>
  <text style="stroke:none;fill:black;font-family:sans-serif;font-size:13;text-anchor:middle;" transform="matrix(1 0 0 1 2339.98 322)">Bold</text>
  <text style="stroke:none;fill:black;font-family:sans-serif;font-size:13;text-anchor:middle;" transform="matrix(1 0 0 1 2636.69 322)">Heavy</text>
  <text style="stroke:none;fill:black;font-family:sans-serif;font-size:13;text-anchor:middle;" transform="matrix(1 0 0 1 2933.4 322)">Black</text>
  <line style="fill:none;stroke:black;opacity:1;stroke-width:0.5;" x1="263" x2="3036" y1="1903" y2="1903"/>
  <g transform="matrix(0.2 0 0 0.2 263 1933)">
   <path d="m46.2402 4.15039c21.7773 0 39.4531-17.627 39.4531-39.4043s-17.6758-39.4043-39.4531-39.4043c-21.7285 0-39.4043 17.627-39.4043 39.4043s17.6758 39.4043 39.4043 39.4043Zm0-7.42188c-17.6758 0-31.9336-14.3066-31.9336-31.9824s14.2578-31.9824 31.9336-31.9824 31.9824 14.3066 31.9824 31.9824-14.3066 31.9824-31.9824 31.9824Zm-17.9688-31.9824c0 2.14844 1.51367 3.61328 3.75977 3.61328h10.498v10.5957c0 2.19727 1.46484 3.71094 3.61328 3.71094 2.24609 0 3.71094-1.51367 3.71094-3.71094v-10.5957h10.5957c2.19727 0 3.71094-1.46484 3.71094-3.61328 0-2.19727-1.51367-3.71094-3.71094-3.71094h-10.5957v-10.5469c0-2.24609-1.46484-3.75977-3.71094-3.75977-2.14844 0-3.61328 1.51367-3.61328 3.75977v10.5469h-10.498c-2.24609 0-3.75977 1.51367-3.75977 3.71094Z"/>
  </g>
  <g transform="matrix(0.2 0 0 0.2 281.506 1933)">
   <path d="m58.5449 14.5508c27.4902 0 49.8047-22.3145 49.8047-49.8047s-22.3145-49.8047-49.8047-49.8047-49.8047 22.3145-49.8047 49.8047 22.3145 49.8047 49.8047 49.8047Zm0-8.30078c-22.9492 0-41.5039-18.5547-41.5039-41.5039s18.5547-41.5039 41.5039-41.5039 41.5039 18.5547 41.5039 41.5039-18.5547 41.5039-41.5039 41.5039Zm-22.6562-41.5039c0 2.39258 1.66016 4.00391 4.15039 4.00391h14.3555v14.4043c0 2.44141 1.66016 4.15039 4.05273 4.15039 2.44141 0 4.15039-1.66016 4.15039-4.15039v-14.4043h14.4043c2.44141 0 4.15039-1.61133 4.15039-4.00391 0-2.44141-1.70898-4.15039-4.15039-4.15039h-14.4043v-14.3555c0-2.49023-1.70898-4.19922-4.15039-4.19922-2.39258 0-4.05273 1.70898-4.05273 4.19922v14.3555h-14.3555c-2.49023 0-4.15039 1.70898-4.15039 4.15039Z"/>
  </g>
  <g transform="matrix(0.2 0 0 0.2 304.924 1933)">
   <path d="m74.8535 28.3203c35.1074 0 63.623-28.4668 63.623-63.5742s-28.5156-63.623-63.623-63.623-63.5742 28.5156-63.5742 63.623 28.4668 63.5742 63.5742 63.5742Zm0-9.08203c-30.127 0-54.4922-24.3652-54.4922-54.4922s24.3652-54.4922 54.4922-54.4922 54.4922 24.3652 54.4922 54.4922-24.3652 54.4922-54.4922 54.4922Zm-28.8574-54.4922c0 2.58789 1.85547 4.39453 4.58984 4.39453h19.7266v19.7754c0 2.68555 1.85547 4.58984 4.44336 4.58984 2.68555 0 4.54102-1.85547 4.54102-4.58984v-19.7754h19.7754c2.68555 0 4.58984-1.80664 4.58984-4.39453 0-2.73438-1.85547-4.58984-4.58984-4.58984h-19.7754v-19.7266c0-2.73438-1.85547-4.63867-4.54102-4.63867-2.58789 0-4.44336 1.9043-4.44336 4.63867v19.7266h-19.7266c-2.73438 0-4.58984 1.85547-4.58984 4.58984Z"/>
  </g>
  <text style="stroke:none;fill:black;font-family:sans-serif;font-size:13;font-weight:bold;" transform="matrix(1 0 0 1 263 1953)">Design Variations</text>
  <text style="stroke:none;fill:black;font-family:sans-serif;font-size:13;" transform="matrix(1 0 0 1 263 1971)">Symbols are supported in up to nine weights and three scales.</text>
  <text style="stroke:none;fill:black;font-family:sans-serif;font-size:13;" transform="matrix(1 0 0 1 263 1989)">For optimal layout with text and other symbols, vertically align</text>
  <text style="stroke:none;fill:black;font-family:sans-serif;font-size:13;" transform="matrix(1 0 0 1 263 2007)">symbols with the adjacent text.</text>
  <line style="fill:none;stroke:#00AEEF;stroke-width:0.5;opacity:1.0;" x1="776" x2="776" y1="1919" y2="1933"/>
  <g transform="matrix(0.2 0 0 0.2 776 1933)">
   <path d="m16.5527 0.78125c2.58789 0 3.85742-0.976562 4.78516-3.71094l6.29883-17.2363h28.8086l6.29883 17.2363c0.927734 2.73438 2.19727 3.71094 4.73633 3.71094 2.58789 0 4.24805-1.5625 4.24805-4.00391 0-0.830078-0.146484-1.61133-0.537109-2.63672l-22.9004-60.9863c-1.12305-2.97852-3.125-4.49219-6.25-4.49219-3.02734 0-5.07812 1.46484-6.15234 4.44336l-22.9004 61.084c-0.390625 1.02539-0.537109 1.80664-0.537109 2.63672 0 2.44141 1.5625 3.95508 4.10156 3.95508Zm13.4766-28.3691 11.8652-32.8613h0.244141l11.8652 32.8613Z"/>
  </g>
  <line style="fill:none;stroke:#00AEEF;stroke-width:0.5;opacity:1.0;" x1="792.836" x2="792.836" y1="1919" y2="1933"/>
  <text style="stroke:none;fill:black;font-family:sans-serif;font-size:13;font-weight:bold;" transform="matrix(1 0 0 1 776 1953)">Margins</text>
  <text style="stroke:none;fill:black;font-family:sans-serif;font-size:13;" transform="matrix(1 0 0 1 776 1971)">Leading and trailing margins on the left and right side of each symbol</text>
  <text style="stroke:none;fill:black;font-family:sans-serif;font-size:13;" transform="matrix(1 0 0 1 776 1989)">can be adjusted by modifying the x-location of the margin guidelines.</text>
  <text style="stroke:none;fill:black;font-family:sans-serif;font-size:13;" transform="matrix(1 0 0 1 776 2007)">Modifications are automatically applied proportionally to all</text>
  <text style="stroke:none;fill:black;font-family:sans-serif;font-size:13;" transform="matrix(1 0 0 1 776 2025)">scales and weights.</text>
  <g transform="matrix(0.2 0 0 0.2 1289 1933)">
   <path d="m14.209 9.32617 8.49609 8.54492c4.29688 4.3457 9.22852 4.05273 13.8672-1.07422l53.4668-58.9355-4.83398-4.88281-53.0762 58.3984c-1.75781 2.00195-3.41797 2.49023-5.76172 0.146484l-5.85938-5.81055c-2.34375-2.29492-1.80664-4.00391 0.195312-5.81055l57.373-54.0039-4.88281-4.83398-57.959 54.4434c-4.93164 4.58984-5.32227 9.47266-1.02539 13.8184Zm32.0801-90.9668c-2.09961 2.05078-2.24609 4.93164-1.07422 6.88477 1.17188 1.80664 3.4668 2.97852 6.68945 2.14844 7.32422-1.70898 14.9414-2.00195 22.0703 2.68555l-2.92969 7.27539c-1.70898 4.15039-0.830078 7.08008 1.85547 9.81445l11.4746 11.5723c2.44141 2.44141 4.49219 2.53906 7.32422 2.05078l5.32227-0.976562 3.32031 3.36914-0.195312 2.7832c-0.195312 2.49023 0.439453 4.39453 2.88086 6.78711l3.80859 3.71094c2.39258 2.39258 5.46875 2.53906 7.8125 0.195312l14.5508-14.5996c2.34375-2.34375 2.24609-5.32227-0.146484-7.71484l-3.85742-3.80859c-2.39258-2.39258-4.24805-3.17383-6.64062-2.97852l-2.88086 0.244141-3.22266-3.17383 1.2207-5.61523c0.634766-2.83203-0.146484-5.0293-3.07617-7.95898l-10.9863-10.9375c-16.6992-16.6016-38.8672-16.2109-53.3203-1.75781Zm7.4707 1.85547c12.1582-8.88672 28.6133-7.37305 39.7461 3.75977l12.1582 12.0605c1.17188 1.17188 1.36719 2.09961 1.02539 3.80859l-1.61133 7.42188 7.51953 7.42188 4.93164-0.292969c1.26953-0.0488281 1.66016 0.0488281 2.63672 1.02539l2.88086 2.88086-12.207 12.207-2.88086-2.88086c-0.976562-0.976562-1.12305-1.36719-1.07422-2.68555l0.341797-4.88281-7.4707-7.42188-7.61719 1.26953c-1.61133 0.341797-2.34375 0.195312-3.56445-0.976562l-10.0098-10.0098c-1.26953-1.17188-1.41602-2.00195-0.634766-3.85742l4.39453-10.4492c-7.8125-7.27539-17.9688-10.4004-28.125-7.42188-0.78125 0.195312-1.07422-0.439453-0.439453-0.976562Z"/>
  </g>
  <text style="stroke:none;fill:black;font-family:sans-serif;font-size:13;font-weight:bold;" transform="matrix(1 0 0 1 1289 1953)">Exporting</text>
  <text style="stroke:none;fill:black;font-family:sans-serif;font-size:13;" transform="matrix(1 0 0 1 1289 1971)">Symbols should be outlined when exporting to ensure the</text>
  <text style="stroke:none;fill:black;font-family:sans-serif;font-size:13;" transform="matrix(1 0 0 1 1289 1989)">design is preserved when submitting to Xcode.</text>
  <text id="template-version" style="stroke:none;fill:black;font-family:sans-serif;font-size:13;text-anchor:end;" transform="matrix(1 0 0 1 3036 1933)">Template v.6.0</text>
  <text style="stroke:none;fill:black;font-family:sans-serif;font-size:13;text-anchor:end;" transform="matrix(1 0 0 1 3036 1951)">Requires Xcode 16 or greater</text>
  <text id="descriptive-name" style="stroke:none;fill:black;font-family:sans-serif;font-size:13;text-anchor:end;" transform="matrix(1 0 0 1 3036 1969)">Generated from diamond</text>
  <text style="stroke:none;fill:black;font-family:sans-serif;font-size:13;text-anchor:end;" transform="matrix(1 0 0 1 3036 1987)">Typeset at 100.0 points</text>
  <text style="stroke:none;fill:black;font-family:sans-serif;font-size:13;" transform="matrix(1 0 0 1 263 726)">Small</text>
  <text style="stroke:none;fill:black;font-family:sans-serif;font-size:13;" transform="matrix(1 0 0 1 263 1156)">Medium</text>
  <text style="stroke:none;fill:black;font-family:sans-serif;font-size:13;" transform="matrix(1 0 0 1 263 1586)">Large</text>
 </g>
 <g id="Guides">
  <g id="H-reference" style="fill:#27AAE1;stroke:none;" transform="matrix(1 0 0 1 339 696)">
   <path d="M0.993654 0L3.63775 0L29.3281-67.1323L30.0303-67.1323L30.0303-70.459L28.1226-70.459ZM11.6885-24.4799L46.9815-24.4799L46.2315-26.7285L12.4385-26.7285ZM55.1196 0L57.7637 0L30.6382-70.459L29.4326-70.459L29.4326-67.1323Z"/>
  </g>
  <line id="Baseline-S" style="fill:none;stroke:#27AAE1;opacity:1;stroke-width:0.5;" x1="263" x2="3036" y1="696" y2="696"/>
  <line id="Capline-S" style="fill:none;stroke:#27AAE1;opacity:1;stroke-width:0.5;" x1="263" x2="3036" y1="625.541" y2="625.541"/>
  <g id="H-reference" style="fill:#27AAE1;stroke:none;" transform="matrix(1 0 0 1 339 1126)">
   <path d="M0.993654 0L3.63775 0L29.3281-67.1323L30.0303-67.1323L30.0303-70.459L28.1226-70.459ZM11.6885-24.4799L46.9815-24.4799L46.2315-26.7285L12.4385-26.7285ZM55.1196 0L57.7637 0L30.6382-70.459L29.4326-70.459L29.4326-67.1323Z"/>
  </g>
  <line id="Baseline-M" style="fill:none;stroke:#27AAE1;opacity:1;stroke-width:0.5;" x1="263" x2="3036" y1="1126" y2="1126"/>
  <line id="Capline-M" style="fill:none;stroke:#27AAE1;opacity:1;stroke-width:0.5;" x1="263" x2="3036" y1="1055.54" y2="1055.54"/>
  <g id="H-reference" style="fill:#27AAE1;stroke:none;" transform="matrix(1 0 0 1 339 1556)">
   <path d="M0.993654 0L3.63775 0L29.3281-67.1323L30.0303-67.1323L30.0303-70.459L28.1226-70.459ZM11.6885-24.4799L46.9815-24.4799L46.2315-26.7285L12.4385-26.7285ZM55.1196 0L57.7637 0L30.6382-70.459L29.4326-70.459L29.4326-67.1323Z"/>
  </g>
  <line id="Baseline-L" style="fill:none;stroke:#27AAE1;opacity:1;stroke-width:0.5;" x1="263" x2="3036" y1="1556" y2="1556"/>
  <line id="Capline-L" style="fill:none;stroke:#27AAE1;opacity:1;stroke-width:0.5;" x1="263" x2="3036" y1="1485.54" y2="1485.54"/>
  <line id="right-margin-Regular-M" style="fill:none;stroke:#00AEEF;stroke-width:0.5;opacity:1.0;" x1="1515.19" x2="1515.19" y1="1030.79" y2="1150.12"/>
  <line id="left-margin-Regular-M" style="fill:none;stroke:#00AEEF;stroke-width:0.5;opacity:1.0;" x1="1384.49" x2="1384.49" y1="1030.79" y2="1150.12"/>
 </g>
 <g id="Symbols">
  <g id="Black-L" transform="matrix(1 0 0 1 2847.99 1556)">
   <path class="monochrome-0 multicolor-0:tintColor hierarchical-0:primary SFSymbolsPreviewWireframe" d="M157.788-46.3L130.988-73.3C127.088-77.2 121.588-79.5 115.788-79.5L55.3876-79.5C49.5876-79.5 44.0876-77.3 40.1876-73.4L12.5876-45.7C7.38759-40.5 7.38759-32.9 12.4876-27.7L74.1876 35.6C77.0876 38.6 81.1876 40.3 85.5876 40.3C89.8876 40.3 94.0876 38.6 96.9876 35.6L157.988-27C163.488-32.7 163.488-40.9 157.888-46.5ZM134.188-27.8L107.888-0.8L118.488-27.8L134.088-27.8ZM118.588-45.2L112.388-61.9L115.688-61.9C116.688-61.9 117.588-61.6 118.188-61L133.888-45.2L118.588-45.2ZM99.4876-27.8L85.4876 7.6L71.4876-27.8L99.3876-27.8ZM99.6876-45.2L71.3876-45.2L77.5876-61.9L93.4876-61.9L99.6876-45.2ZM63.1876-0.8L36.8876-27.8L52.4876-27.8L63.0876-0.8ZM55.3876-61.9L58.6876-61.9L52.4876-45.2L37.1876-45.2L52.8876-61C53.4876-61.6 54.2876-61.9 55.2876-61.9Z"/>
  </g>
  <g id="Heavy-L" transform="matrix(1 0 0 1 2551.28 1556)">
   <path class="monochrome-0 multicolor-0:tintColor hierarchical-0:primary SFSymbolsPreviewWireframe" d="M157.788-47.4L130.988-74.4C127.088-78.3 121.588-80.6 115.788-80.6L55.3876-80.6C49.5876-80.6 44.0876-78.4 40.1876-74.5L12.5876-46.8C7.38759-41.6 7.38759-34 12.4876-28.8L74.1876 34.5C77.0876 37.5 81.1876 39.2 85.5876 39.2C89.8876 39.2 94.0876 37.5 96.9876 34.5L157.988-28.1C163.488-33.8 163.488-42 157.888-47.6ZM134.188-28.9L107.888-1.9L118.488-28.9L134.088-28.9ZM118.588-46.3L112.388-63L115.688-63C116.688-63 117.588-62.7 118.188-62.1L133.888-46.3L118.588-46.3ZM99.4876-28.9L85.4876 6.5L71.4876-28.9L99.3876-28.9ZM99.6876-46.3L71.3876-46.3L77.5876-63L93.4876-63L99.6876-46.3ZM63.1876-1.9L36.8876-28.9L52.4876-28.9L63.0876-1.9ZM55.3876-63L58.6876-63L52.4876-46.3L37.1876-46.3L52.8876-62.1C53.4876-62.7 54.2876-63 55.2876-63Z"/>
  </g>
  <g id="Bold-L" transform="matrix(1 0 0 1 2255.38 1556)">
   <path class="monochrome-0 multicolor-0:tintColor hierarchical-0:primary SFSymbolsPreviewWireframe" d="M156.313-47.3L129.513-74.3C125.813-78.1 120.513-80.2 114.913-80.2L54.5126-80.2C49.0126-80.2 43.6126-78.1 39.9126-74.3L12.3126-46.6C7.5126-41.7 7.4126-34.7 12.3126-29.8L74.0126 33.5C76.7126 36.3 80.7126 37.9 84.8126 37.9C88.9126 37.9 92.8126 36.3 95.6126 33.5L156.613-29.1C161.813-34.4 161.713-42.1 156.613-47.4ZM135.313-30.3L104.713 1.1L117.113-30.3L135.313-30.3ZM117.213-46.1L110.413-64.5L114.913-64.5C116.113-64.5 117.213-64.1 117.913-63.4L135.113-46.1L117.213-46.1ZM99.9126-30.3L84.7126 8.2L69.5126-30.3L99.9126-30.3ZM100.013-46.1L69.3126-46.1L76.1126-64.5L93.2126-64.5L100.013-46.1ZM64.6126 1.2L34.0126-30.2L52.2126-30.2L64.6126 1.2ZM34.3126-46.1L51.5126-63.4C52.2126-64.1 53.3126-64.5 54.5126-64.5L59.0126-64.5L52.2126-46.1L34.3126-46.1Z"/>
  </g>
  <g id="Semibold-L" transform="matrix(1 0 0 1 1959.08 1556)">
   <path class="monochrome-0 multicolor-0:tintColor hierarchical-0:primary SFSymbolsPreviewWireframe" d="M155.6-47.6L128.8-74.6C125.2-78.3 119.9-80.4 114.5-80.4L54.1-80.4C48.7-80.4 43.5-78.3 39.8-74.6L12.2-46.9C7.5-42.2 7.5-35.4 12.2-30.7L73.9 32.6C76.6 35.3 80.4 36.9 84.4 36.9C88.4 36.9 92.2 35.3 94.9 32.6L155.9-30C160.9-35.2 160.9-42.6 155.9-47.7ZM116.5-46.2L109.4-65.4L114.5-65.4C115.8-65.4 117.1-64.9 117.9-64.1L135.8-46.1L116.6-46.1ZM135.9-31.2L103.1 2.5L116.4-31.2L135.9-31.2ZM68.3-46.2L75.4-65.4L93-65.4L100.1-46.2L68.2-46.2ZM65.3 2.4L32.5-31.3L52-31.3L65.3 2.4ZM32.8-46.2L50.7-64.2C51.5-65 52.7-65.4 54-65.4L59.1-65.4L52-46.2L32.8-46.2ZM100.1-31.2L84.3 8.9L68.5-31.2L100.1-31.2Z"/>
  </g>
  <g id="Medium-L" transform="matrix(1 0 0 1 1663.23 1556)">
   <path class="monochrome-0 multicolor-0:tintColor hierarchical-0:primary SFSymbolsPreviewWireframe" d="M154.138-46.9L127.338-73.9C123.838-77.4 118.838-79.4 113.638-79.4L53.2376-79.4C48.0376-79.4 43.0376-77.4 39.5376-73.9L11.9376-46.2C7.63761-41.9 7.53761-35.5 11.9376-31.1L73.6376 32.2C76.1376 34.8 79.7376 36.3 83.5376 36.3C87.3376 36.3 90.9376 34.8 93.4376 32.2L154.438-30.4C159.138-35.2 159.038-42.2 154.438-46.9ZM137.038-32L99.9376 6.1L114.938-32L137.038-32ZM107.238-66.1L113.638-66.1C115.238-66.1 116.638-65.6 117.638-64.6L136.938-45.2L115.138-45.2L107.338-66.1ZM66.2376-45.2L74.0376-66.1L92.8376-66.1L100.638-45.2L66.3376-45.2ZM66.8376 6.1L29.7376-32L51.8376-32L66.8376 6.1ZM53.2376-66.1L59.5376-66.1L51.7376-45.2L29.9376-45.2L49.2376-64.6C50.1376-65.5 51.6376-66.1 53.1376-66.1ZM100.438-32L83.3376 11.2L66.2376-32L100.338-32Z"/>
  </g>
  <g id="Regular-L" transform="matrix(1 0 0 1 1367.38 1556)">
   <path class="monochrome-0 multicolor-0:tintColor hierarchical-0:primary SFSymbolsPreviewWireframe" d="M152.675-46.4L125.875-73.4C122.575-76.8 117.775-78.7 112.775-78.7L52.375-78.7C47.375-78.7 42.575-76.8 39.275-73.4L11.675-45.7C7.675-41.7 7.675-35.9 11.675-31.8L73.375 31.5C75.675 33.9 79.075 35.3 82.675 35.3C86.175 35.3 89.575 33.9 91.975 31.5L152.975-31.1C157.275-35.6 157.275-42 152.975-46.4ZM113.575-44.5L105.175-67.1L112.775-67.1C114.575-67.1 116.175-66.5 117.275-65.3L137.975-44.4L113.475-44.4ZM138.175-32.9L96.775 9.7L113.575-32.9L138.175-32.9ZM64.175-44.5L72.575-67.1L92.575-67.1L100.975-44.5L64.175-44.5ZM68.275 9.6L26.875-33L51.475-33L68.275 9.6ZM52.275-67.1L59.875-67.1L51.475-44.5L26.975-44.5L47.675-65.4C48.775-66.5 50.475-67.1 52.175-67.1ZM100.775-32.9L82.475 13.5L64.175-32.9L100.775-32.9Z"/>
  </g>
  <g id="Light-L" transform="matrix(1 0 0 1 1072.43 1556)">
   <path class="monochrome-0 multicolor-0:tintColor hierarchical-0:primary SFSymbolsPreviewWireframe" d="M149.75-44.6L122.95-71.6C119.95-74.6 115.55-76.4 111.05-76.4L50.65-76.4C46.15-76.4 41.75-74.7 38.75-71.6L11.15-43.9C7.85-40.6 7.85-35.7 11.15-32.4L72.85 30.9C74.85 33 77.85 34.2 80.85 34.2C83.95 34.2 86.85 33 88.95 30.9L149.95-31.7C153.65-35.5 153.55-40.9 149.95-44.7ZM101.55-34L80.75 18.7L59.95-34L101.55-34ZM59.95-42.2L69.55-68.2L91.85-68.2L101.45-42.2L59.85-42.2ZM110.65-42.2L101.05-68.2L111.05-68.2C113.25-68.2 115.35-67.4 116.75-66L140.35-42.2L110.65-42.2ZM140.45-34L90.35 17.5L110.65-34L140.45-34ZM71.25 17.4L21.15-34.1L50.95-34.1L71.25 17.4ZM50.55-68.2L60.55-68.2L50.95-42.2L21.25-42.2L44.85-66C46.25-67.4 48.35-68.2 50.55-68.2Z"/>
  </g>
  <g id="Thin-L" transform="matrix(1 0 0 1 777.041 1556)">
   <path class="monochrome-0 multicolor-0:tintColor hierarchical-0:primary SFSymbolsPreviewWireframe" d="M147.575-43.9L120.775-70.9C117.975-73.7 113.975-75.3 109.775-75.3L49.375-75.3C45.175-75.3 41.175-73.7 38.375-70.9L10.775-43.2C7.975-40.4 7.975-36.3 10.775-33.5L72.475 29.8C74.275 31.6 76.875 32.7 79.575 32.7C82.275 32.7 84.875 31.6 86.675 29.8L147.675-32.8C150.875-36.1 150.775-40.8 147.675-44ZM142.075-41.2L108.475-41.2L97.875-69.7L109.675-69.7C112.275-69.7 114.675-68.7 116.275-67.1L141.975-41.2ZM102.175-35.5L79.575 21.9L56.975-35.5L102.275-35.5ZM56.875-41.2L67.475-69.7L91.575-69.7L102.175-41.2L56.875-41.2ZM61.075-69.7L50.475-41.2L16.875-41.2L42.675-67.1C44.375-68.8 46.775-69.7 49.275-69.7L61.075-69.7ZM50.475-35.5L73.375 22.6L16.775-35.5L50.475-35.5ZM142.175-35.5L85.575 22.6L108.475-35.5L142.175-35.5Z"/>
  </g>
  <g id="Ultralight-L" transform="matrix(1 0 0 1 480.917 1556)">
   <path class="monochrome-0 multicolor-0:tintColor hierarchical-0:primary SFSymbolsPreviewWireframe" d="M146.488-43.6L119.688-70.6C116.988-73.3 113.188-74.8 109.088-74.8L48.6877-74.8C44.6877-74.8 40.7877-73.3 38.1877-70.6L10.5877-42.9C8.08768-40.4 7.98768-36.6 10.5877-34.1L72.2877 29.2C73.9877 30.9 76.3877 31.9 78.9877 31.9C81.5877 31.9 83.9877 30.9 85.6877 29.2L146.688-33.4C149.588-36.4 149.588-40.7 146.688-43.7ZM102.488-36.3L78.8877 23.5L55.2877-36.3L102.488-36.3ZM107.388-40.7L96.2877-70.5L108.988-70.5C111.688-70.5 114.288-69.5 116.088-67.7L142.888-40.7L107.288-40.7ZM143.088-36.3C143.088-36.3 143.088-36.3 143.088-36.3L83.2877 25.1L107.588-36.4L143.188-36.4ZM55.3877-40.7L66.4877-70.5L91.4877-70.5L102.588-40.7L55.4877-40.7ZM50.2877-36.3L74.5877 25.2L14.6877-36.3L50.2877-36.3ZM48.6877-70.5L61.3877-70.5L50.2877-40.7L14.6877-40.7L41.4877-67.7C43.2877-69.5 45.8877-70.5 48.5877-70.5Z"/>
  </g>
  <g id="Black-M" transform="matrix(1 0 0 1 2865.67 1126)">
   <path class="monochrome-0 multicolor-0:tintColor hierarchical-0:primary SFSymbolsPreviewWireframe" d="M123.375-42.5L102.775-63.3C99.775-66.3 95.475-68 91.075-68L44.575-68C40.175-68 35.875-66.3 32.875-63.3L11.675-42C7.675-38 7.675-32.2 11.675-28.1L59.075 20.6C61.275 22.9 64.475 24.2 67.875 24.2C71.175 24.2 74.375 22.9 76.675 20.6L123.575-27.6C127.775-32 127.775-38.3 123.575-42.6ZM105.275-28.3L85.075-7.5L93.275-28.3L105.275-28.3ZM93.275-41.7L88.475-54.6L91.075-54.6C91.875-54.6 92.575-54.4 92.975-53.9L105.075-41.7L93.275-41.7ZM78.575-28.3L67.875-1.1L57.175-28.3L78.675-28.3ZM78.675-41.7L56.975-41.7L61.775-54.6L73.975-54.6L78.775-41.7ZM50.575-7.5L30.375-28.3L42.375-28.3L50.575-7.5ZM44.575-54.6L47.075-54.6L42.275-41.7L30.475-41.7L42.575-53.9C42.975-54.3 43.675-54.6 44.475-54.6Z"/>
  </g>
  <g id="Heavy-M" transform="matrix(1 0 0 1 2568.96 1126)">
   <path class="monochrome-0 multicolor-0:tintColor hierarchical-0:primary SFSymbolsPreviewWireframe" d="M123.375-43.5L102.775-64.3C99.775-67.3 95.475-69 91.075-69L44.575-69C40.175-69 35.875-67.3 32.875-64.3L11.675-43C7.675-39 7.675-33.2 11.675-29.1L59.075 19.6C61.275 21.9 64.475 23.2 67.875 23.2C71.175 23.2 74.375 21.9 76.675 19.6L123.575-28.6C127.775-33 127.775-39.3 123.575-43.6ZM105.275-29.2L85.075-8.4L93.275-29.2L105.275-29.2ZM93.275-42.7L88.475-55.6L91.075-55.6C91.875-55.6 92.575-55.4 92.975-54.9L105.075-42.7L93.275-42.7ZM78.575-29.2L67.875-2L57.175-29.2L78.675-29.2ZM78.675-42.7L56.975-42.7L61.775-55.6L73.975-55.6L78.775-42.7ZM50.575-8.5L30.375-29.3L42.375-29.3L50.575-8.5ZM44.575-55.5L47.075-55.5L42.275-42.6L30.475-42.6L42.575-54.8C42.975-55.2 43.675-55.5 44.475-55.5Z"/>
  </g>
  <g id="Bold-M" transform="matrix(1 0 0 1 2272.94 1126)">
   <path class="monochrome-0 multicolor-0:tintColor hierarchical-0:primary SFSymbolsPreviewWireframe" d="M122.15-43.5L101.55-64.3C98.65-67.2 94.55-68.8 90.35-68.8L43.85-68.8C39.55-68.8 35.45-67.1 32.65-64.3L11.45-43C7.75-39.3 7.75-33.8 11.45-30.1L58.85 18.6C60.95 20.8 63.95 22 67.15 22C70.35 22 73.35 20.8 75.45 18.6L122.35-29.6C126.35-33.7 126.35-39.6 122.35-43.7ZM106.05-30.3L82.55-6.1L92.05-30.3L106.05-30.3ZM92.05-42.5L86.85-56.7L90.35-56.7C91.25-56.7 92.15-56.4 92.65-55.8L105.85-42.5L92.05-42.5ZM78.75-30.3L67.05-0.7L55.35-30.3L78.75-30.3ZM78.85-42.5L55.25-42.5L60.45-56.7L73.55-56.7L78.75-42.5ZM51.65-6.2L28.15-30.4L42.15-30.4L51.65-6.2ZM28.25-42.5L41.45-55.8C41.95-56.3 42.85-56.7 43.75-56.7L47.25-56.7L42.05-42.5L28.25-42.5Z"/>
  </g>
  <g id="Semibold-M" transform="matrix(1 0 0 1 1976.52 1126)">
   <path class="monochrome-0 multicolor-0:tintColor hierarchical-0:primary SFSymbolsPreviewWireframe" d="M121.675-43.7L101.075-64.5C98.275-67.3 94.275-68.9 90.075-68.9L43.575-68.9C39.375-68.9 35.375-67.3 32.575-64.5L11.375-43.2C7.775-39.6 7.775-34.3 11.375-30.7L58.775 18C60.775 20.1 63.775 21.3 66.875 21.3C69.975 21.3 72.875 20.1 74.975 18L121.875-30.2C125.775-34.2 125.675-39.9 121.875-43.8ZM91.575-42.6L86.075-57.4L90.075-57.4C91.075-57.4 92.075-57 92.675-56.4L106.375-42.6L91.575-42.6ZM106.575-31.1L81.375-5.2L91.575-31.1L106.575-31.1ZM54.475-42.6L59.975-57.4L73.575-57.4L79.075-42.6L54.575-42.6ZM52.275-5.2L27.075-31.1L42.075-31.1L52.275-5.2ZM27.275-42.6L41.075-56.4C41.675-57 42.575-57.4 43.675-57.4L47.575-57.4L42.075-42.6L27.275-42.6ZM78.975-31.1L66.775-0.3L54.575-31.1L78.875-31.1Z"/>
  </g>
  <g id="Medium-M" transform="matrix(1 0 0 1 1680.52 1126)">
   <path class="monochrome-0 multicolor-0:tintColor hierarchical-0:primary SFSymbolsPreviewWireframe" d="M120.45-43.1L99.85-63.9C97.15-66.6 93.35-68.2 89.35-68.2L42.85-68.2C38.85-68.2 35.05-66.7 32.35-64L11.15-42.7C7.85-39.4 7.85-34.5 11.15-31.1L58.55 17.6C60.45 19.6 63.25 20.7 66.15 20.7C69.05 20.7 71.85 19.6 73.75 17.6L120.65-30.6C124.25-34.3 124.25-39.6 120.65-43.3ZM107.35-31.7L78.85-2.4L90.45-31.7L107.45-31.7ZM84.45-58L89.35-58C90.55-58 91.65-57.6 92.35-56.8L107.15-41.9L90.35-41.9L84.35-58ZM52.85-41.9L58.85-58L73.35-58L79.35-41.9L52.95-41.9ZM53.35-2.4L24.85-31.7L41.85-31.7L53.45-2.4ZM42.85-58L47.75-58L41.75-41.9L24.95-41.9L39.85-56.9C40.55-57.6 41.65-58 42.85-58ZM79.15-31.7L66.05 1.6L52.95-31.7L79.15-31.7Z"/>
  </g>
  <g id="Regular-M" transform="matrix(1 0 0 1 1384.49 1126)">
   <path class="monochrome-0 multicolor-0:tintColor hierarchical-0:primary SFSymbolsPreviewWireframe" d="M119.5-42.8L98.9-63.6C96.3-66.2 92.7-67.7 88.8-67.7L42.3-67.7C38.5-67.7 34.8-66.2 32.2-63.7L11-42.4C7.9-39.3 7.9-34.8 11-31.7L58.4 17C60.2 18.9 62.8 19.9 65.5 19.9C68.2 19.9 70.8 18.8 72.6 17L119.5-31.2C122.8-34.6 122.8-39.6 119.5-43ZM89.4-41.3L82.9-58.7L88.7-58.7C90.1-58.7 91.4-58.2 92.2-57.4L108.1-41.3L89.3-41.3ZM108.3-32.4L76.4 0.3L89.3-32.4L108.3-32.4ZM51.4-41.3L57.9-58.7L73.3-58.7L79.8-41.3L51.5-41.3ZM54.5 0.3L22.6-32.4L41.6-32.4L54.5 0.3ZM42.3-58.7L48.1-58.7L41.6-41.3L22.8-41.3L38.8-57.4C39.6-58.3 40.9-58.7 42.3-58.7ZM79.6-32.4L65.5 3.3L51.4-32.4L79.6-32.4Z"/>
  </g>
  <g id="Light-M" transform="matrix(1 0 0 1 1089.08 1126)">
   <path class="monochrome-0 multicolor-0:tintColor hierarchical-0:primary SFSymbolsPreviewWireframe" d="M117.188-41.6L96.5877-62.4C94.2877-64.7 90.8877-66.1 87.3877-66.1L40.8877-66.1C37.3877-66.1 34.0877-64.8 31.7877-62.4L10.5877-41.1C8.08768-38.6 7.98768-34.8 10.5877-32.3L57.9877 16.4C59.5877 18 61.7877 18.9 64.1877 18.9C66.5877 18.9 68.7877 18 70.3877 16.4L117.288-31.8C120.088-34.7 120.088-38.9 117.288-41.8ZM80.1877-33.4L64.1877 7.1L48.1877-33.4L80.1877-33.4ZM48.1877-39.7L55.5877-59.7L72.7877-59.7L80.1877-39.7L48.1877-39.7ZM87.1877-39.7L79.7877-59.7L87.4877-59.7C89.1877-59.7 90.7877-59.1 91.8877-58L109.988-39.7L87.1877-39.7ZM110.088-33.4L71.5877 6.2L87.1877-33.4L110.088-33.4ZM56.7877 6.1L18.2877-33.5L41.1877-33.5L56.7877 6.1ZM40.9877-59.7L48.6877-59.7L41.2877-39.7L18.4877-39.7L36.6877-58C37.7877-59.1 39.3877-59.7 41.0877-59.7Z"/>
  </g>
  <g id="Ultralight-M" transform="matrix(1 0 0 1 497.205 1126)">
   <path class="monochrome-0 multicolor-0:tintColor hierarchical-0:primary SFSymbolsPreviewWireframe" d="M114.638-41.1L94.0377-61.9C92.0377-64 89.0377-65.1 85.9377-65.1L39.4377-65.1C36.3377-65.1 33.3377-63.9 31.3377-61.9L10.1377-40.6C8.23774-38.6 8.13774-35.8 10.1377-33.8L57.5377 14.9C58.8377 16.2 60.7377 17 62.6377 17C64.6377 17 66.5377 16.2 67.7377 14.9L114.638-33.3C116.838-35.6 116.838-38.9 114.638-41.2ZM80.7377-35.4L62.6377 10.6L44.5377-35.4L80.8377-35.4ZM84.5377-38.8L76.0377-61.7L85.8377-61.7C87.9377-61.7 89.9377-60.9 91.3377-59.5L111.938-38.7L84.5377-38.7ZM111.938-35.4C111.938-35.4 111.938-35.4 111.938-35.4L65.9377 11.9L84.6377-35.4L112.038-35.4ZM44.5377-38.8L53.0377-61.7L72.2377-61.7L80.7377-38.8L44.5377-38.8ZM40.6377-35.4L59.3377 11.9L13.3377-35.4L40.7377-35.4ZM39.3377-61.7L49.1377-61.7L40.6377-38.8L13.2377-38.8L33.8377-59.6C35.2377-61 37.2377-61.8 39.3377-61.8Z"/>
  </g>
  <g id="Black-S" transform="matrix(1 0 0 1 2879.32 696)">
   <path class="monochrome-0 multicolor-0:tintColor hierarchical-0:primary SFSymbolsPreviewWireframe" d="M96.9-39.7L81-55.7C78.7-58 75.4-59.3 72-59.3L36.3-59.3C32.9-59.3 29.6-58 27.3-55.7L11-39.3C7.9-36.2 7.9-31.7 11-28.6L47.5 8.9C49.2 10.7 51.7 11.7 54.2 11.7C56.8 11.7 59.2 10.7 60.9 8.9L97-28.1C100.3-31.5 100.2-36.3 97-39.6ZM83-28.8L67.5-12.8L73.8-28.8L83-28.8ZM73.8-39.1L70.1-49L72.1-49C72.7-49 73.2-48.8 73.6-48.5L82.9-39.1L73.8-39.1ZM62.5-28.8L54.2-7.9L45.9-28.8L62.4-28.8ZM62.6-39.1L45.9-39.1L49.6-49L59-49L62.7-39.1ZM40.9-12.8L25.4-28.8L34.6-28.8L40.9-12.8ZM36.3-49L38.3-49L34.6-39.1L25.6-39.1L34.9-48.5C35.2-48.8 35.8-49 36.3-49Z"/>
  </g>
  <g id="Heavy-S" transform="matrix(1 0 0 1 2582.61 696)">
   <path class="monochrome-0 multicolor-0:tintColor hierarchical-0:primary SFSymbolsPreviewWireframe" d="M96.9-40.4L81-56.4C78.7-58.7 75.4-60 72-60L36.3-60C32.9-60 29.6-58.7 27.3-56.4L11-40C7.9-36.9 7.9-32.4 11-29.3L47.5 8.2C49.2 10 51.7 11 54.2 11C56.8 11 59.2 10 60.9 8.2L97-28.8C100.3-32.2 100.2-37 97-40.3ZM83-29.5L67.5-13.5L73.8-29.5L83-29.5ZM73.8-39.8L70.1-49.7L72.1-49.7C72.7-49.7 73.2-49.5 73.6-49.2L82.9-39.8L73.8-39.8ZM62.4-29.5L54.1-8.6L45.8-29.5L62.3-29.5ZM62.6-39.8L45.9-39.8L49.6-49.7L59-49.7L62.7-39.8ZM40.9-13.5L25.4-29.5L34.6-29.5L40.9-13.5ZM36.3-49.7L38.3-49.7L34.6-39.8L25.6-39.8L34.9-49.2C35.2-49.5 35.8-49.7 36.3-49.7Z"/>
  </g>
  <g id="Bold-S" transform="matrix(1 0 0 1 2286.35 696)">
   <path class="monochrome-0 multicolor-0:tintColor hierarchical-0:primary SFSymbolsPreviewWireframe" d="M95.95-40.4L80.05-56.4C77.85-58.6 74.65-59.9 71.45-59.9L35.75-59.9C32.45-59.9 29.35-58.6 27.15-56.4L10.85-40C7.95-37.1 7.95-32.9 10.85-30L47.35 7.5C48.95 9.2 51.25 10.1 53.75 10.1C56.15 10.1 58.45 9.1 60.15 7.5L96.25-29.5C99.35-32.7 99.25-37.2 96.25-40.3ZM83.55-30.3L65.45-11.7L72.75-30.3L83.55-30.3ZM72.75-39.6L68.75-50.5L71.45-50.5C72.15-50.5 72.85-50.3 73.25-49.8L83.45-39.6L72.85-39.6ZM62.55-30.3L53.55-7.5L44.55-30.3L62.55-30.3ZM62.65-39.6L44.45-39.6L48.45-50.5L58.55-50.5L62.55-39.6ZM41.65-11.7L23.55-30.3L34.35-30.3L41.65-11.7ZM23.75-39.6L33.95-49.8C34.35-50.2 35.05-50.5 35.75-50.5L38.45-50.5L34.45-39.6L23.85-39.6Z"/>
  </g>
  <g id="Semibold-S" transform="matrix(1 0 0 1 1989.91 696)">
   <path class="monochrome-0 multicolor-0:tintColor hierarchical-0:primary SFSymbolsPreviewWireframe" d="M95.675-39.5L79.775-55.5C77.575-57.7 74.575-58.9 71.275-58.9L35.575-58.9C32.375-58.9 29.275-57.7 27.075-55.5L10.775-39.1C7.975-36.3 7.975-32.3 10.775-29.5L47.275 8C48.875 9.6 51.075 10.6 53.475 10.6C55.875 10.6 58.075 9.7 59.675 8.1L95.775-28.9C98.775-31.9 98.675-36.4 95.775-39.4ZM72.475-38.7L68.275-50.1L71.275-50.1C72.075-50.1 72.775-49.8 73.275-49.4L83.875-38.8L72.475-38.8ZM84.075-29.8L64.675-9.9L72.575-29.8L84.075-29.8ZM43.975-38.7L48.175-50.1L58.575-50.1L62.775-38.7L43.875-38.7ZM42.275-9.9L22.875-29.8L34.375-29.8L42.275-9.9ZM23.075-38.7L33.675-49.3C34.175-49.8 34.875-50 35.675-50L38.675-50L34.475-38.6L23.075-38.6ZM62.775-29.8L53.375-6.1L43.975-29.8L62.675-29.8Z"/>
  </g>
  <g id="Medium-S" transform="matrix(1 0 0 1 1693.75 696)">
   <path class="monochrome-0 multicolor-0:tintColor hierarchical-0:primary SFSymbolsPreviewWireframe" d="M94.725-39.1L78.825-55.1C76.725-57.2 73.825-58.4 70.725-58.4L35.025-58.4C31.925-58.4 29.025-57.2 26.925-55.1L10.625-38.7C8.025-36.1 8.025-32.4 10.625-29.8L47.125 7.7C48.625 9.2 50.725 10.1 52.925 10.1C55.125 10.1 57.325 9.2 58.725 7.7L94.825-29.3C97.625-32.1 97.525-36.3 94.825-39.1ZM84.625-30.2L62.625-7.6L71.525-30.2L84.625-30.2ZM67.025-50.5L70.825-50.5C71.725-50.5 72.625-50.2 73.125-49.6L84.525-38.1L71.625-38.1L67.025-50.5ZM42.725-38.1L47.325-50.5L58.425-50.5L63.025-38.1L42.725-38.1ZM43.125-7.7L21.125-30.2L34.225-30.2L43.125-7.7ZM35.025-50.5L38.825-50.5L34.225-38.1L21.325-38.1L32.725-49.6C33.325-50.2 34.125-50.5 35.025-50.5ZM63.025-30.2L52.925-4.6L42.825-30.2L63.025-30.2Z"/>
  </g>
  <g id="Regular-S" transform="matrix(1 0 0 1 1397.47 696)">
   <path class="monochrome-0 multicolor-0:tintColor hierarchical-0:primary SFSymbolsPreviewWireframe" d="M93.875-39.7L77.975-55.7C75.975-57.7 73.175-58.8 70.175-58.8L34.475-58.8C31.475-58.8 28.675-57.7 26.775-55.7L10.475-39.3C8.075-36.9 8.075-33.5 10.475-31.1L46.975 6.4C48.375 7.8 50.375 8.6 52.475 8.6C54.575 8.6 56.575 7.8 57.975 6.4L94.075-30.6C96.675-33.2 96.675-37.1 94.075-39.7ZM70.675-38.6L65.675-52L70.175-52C71.275-52 72.175-51.6 72.875-51L85.175-38.7L70.675-38.7ZM85.275-31.8L60.775-6.6L70.675-31.8L85.275-31.8ZM41.475-38.6L46.475-52L58.275-52L63.275-38.6L41.475-38.6ZM43.875-6.6L19.375-31.8L33.975-31.8L43.875-6.6ZM34.475-52L38.975-52L33.975-38.6L19.475-38.6L31.775-51C32.475-51.7 33.375-52 34.475-52ZM63.175-31.8L52.375-4.4L41.575-31.8L63.275-31.8Z"/>
  </g>
  <g id="Light-S" transform="matrix(1 0 0 1 1101.76 696)">
   <path class="monochrome-0 multicolor-0:tintColor hierarchical-0:primary SFSymbolsPreviewWireframe" d="M92.075-38.9L76.175-54.9C74.375-56.7 71.775-57.7 69.175-57.7L33.475-57.7C30.775-57.7 28.175-56.7 26.475-54.9L10.175-38.5C8.175-36.5 8.175-33.7 10.175-31.7L46.675 5.8C47.875 7 49.575 7.7 51.475 7.7C53.275 7.7 55.075 7 56.275 5.8L92.375-31.2C94.575-33.4 94.575-36.7 92.375-38.9ZM63.575-32.7L51.275-1.5L38.975-32.7L63.575-32.7ZM38.975-37.5L44.675-52.9L57.875-52.9L63.575-37.5L38.975-37.5ZM68.975-37.5L63.275-52.9L69.175-52.9C70.475-52.9 71.775-52.4 72.575-51.6L86.575-37.5L68.975-37.5ZM86.675-32.7L57.075-2.2L69.075-32.7L86.675-32.7ZM45.675-2.2L16.075-32.6L33.675-32.6L45.675-2.2ZM33.475-52.9L39.375-52.9L33.675-37.5L16.075-37.5L30.075-51.6C30.875-52.4 32.175-52.9 33.475-52.9Z"/>
  </g>
  <g id="Thin-S" transform="matrix(1 0 0 1 805.891 696)">
   <path class="monochrome-0 multicolor-0:tintColor hierarchical-0:primary SFSymbolsPreviewWireframe" d="M90.8128-38.1L74.9128-54.1C73.3128-55.8 70.9128-56.7 68.4128-56.7L32.7128-56.7C30.2128-56.7 27.8128-55.8 26.2128-54.1L9.91278-37.7C8.31278-36 8.21278-33.6 9.91278-31.9L46.4128 5.6C47.5128 6.7 49.0128 7.3 50.6128 7.3C52.2128 7.3 53.8128 6.7 54.8128 5.6L90.9128-31.4C92.8128-33.3 92.8128-36.1 90.9128-38ZM87.6128-36.4L67.7128-36.4L61.4128-53.3L68.4128-53.3C69.9128-53.3 71.4128-52.7 72.3128-51.7L87.5128-36.4ZM63.9128-33.1L50.5128 0.9L37.1128-33.1L63.9128-33.1ZM37.1128-36.4L43.4128-53.3L57.7128-53.3L64.0128-36.4L37.2128-36.4ZM39.7128-53.3L33.4128-36.4L13.5128-36.4L28.7128-51.7C29.7128-52.7 31.1128-53.2 32.6128-53.2L39.6128-53.2ZM33.4128-33.1L47.0128 1.3L13.5128-33.1L33.4128-33.1ZM87.6128-33.1L54.1128 1.3L67.7128-33.1L87.6128-33.1Z"/>
  </g>
  <g id="Ultralight-S" transform="matrix(1 0 0 1 509.511 696)">
   <path class="monochrome-0 multicolor-0:tintColor hierarchical-0:primary SFSymbolsPreviewWireframe" d="M90.1-38.2L74.2-54.2C72.6-55.8 70.4-56.7 68-56.7L32.3-56.7C29.9-56.7 27.6-55.8 26.1-54.2L9.8-37.8C8.3-36.3 8.3-34.1 9.8-32.6L46.3 4.9C47.3 5.9 48.7 6.5 50.3 6.5C51.8 6.5 53.3 5.9 54.3 4.9L90.4-32.1C92.1-33.9 92.1-36.4 90.4-38.2ZM64.1-33.8L50.1 1.6L36.1-33.8L64-33.8ZM67-36.4L60.5-54L68-54C69.6-54 71.2-53.4 72.2-52.3L88.1-36.3L67-36.3ZM88.1-33.8C88.1-33.8 88.1-33.8 88.1-33.8L52.7 2.6L67.1-33.8L88.2-33.8ZM36.2-36.4L42.7-54L57.5-54L64-36.4L36.1-36.4ZM33.2-33.8L47.6 2.6L12.2-33.8L33.3-33.8ZM32.3-54.1L39.8-54.1L33.3-36.5L12.2-36.5L28.1-52.5C29.1-53.6 30.7-54.2 32.3-54.2Z"/>
  </g>
 </g>
</svg>
